<?xml version="1.0" standalone="no"?>
<!DOCTYPE svg PUBLIC "-//W3C//DTD SVG 1.1//EN" "http://www.w3.org/Graphics/SVG/1.1/DTD/svg11.dtd" >
<svg xmlns="http://www.w3.org/2000/svg">
<metadata>
Created by FontForge 20120731 at Sun Sep  4 22:44:57 2016
 By admin
</metadata>
<defs>
<font id="iconfont" horiz-adv-x="1024" >
  <font-face 
    font-family="iconfont"
    font-weight="500"
    font-stretch="normal"
    units-per-em="1024"
    panose-1="2 0 6 3 0 0 0 0 0 0"
    ascent="896"
    descent="-128"
    x-height="792"
    bbox="-0.057143 -224 1921 896"
    underline-thickness="50"
    underline-position="-100"
    unicode-range="U+0078-E67B"
  />
<missing-glyph horiz-adv-x="374" 
d="M34 0v682h272v-682h-272zM68 34h204v614h-204v-614z" />
    <glyph glyph-name=".notdef" horiz-adv-x="374" 
d="M34 0v682h272v-682h-272zM68 34h204v614h-204v-614z" />
    <glyph glyph-name=".null" horiz-adv-x="0" 
 />
    <glyph glyph-name="nonmarkingreturn" horiz-adv-x="341" 
 />
    <glyph glyph-name="x" unicode="x" horiz-adv-x="1001" 
d="M281 543q-27 -1 -53 -1h-83q-18 0 -36.5 -6t-32.5 -18.5t-23 -32t-9 -45.5v-76h912v41q0 16 -0.5 30t-0.5 18q0 13 -5 29t-17 29.5t-31.5 22.5t-49.5 9h-133v-97h-438v97zM955 310v-52q0 -23 0.5 -52t0.5 -58t-10.5 -47.5t-26 -30t-33 -16t-31.5 -4.5q-14 -1 -29.5 -0.5
t-29.5 0.5h-32l-45 128h-439l-44 -128h-29h-34q-20 0 -45 1q-25 0 -41 9.5t-25.5 23t-13.5 29.5t-4 30v167h911zM163 247q-12 0 -21 -8.5t-9 -21.5t9 -21.5t21 -8.5q13 0 22 8.5t9 21.5t-9 21.5t-22 8.5zM316 123q-8 -26 -14 -48q-5 -19 -10.5 -37t-7.5 -25t-3 -15t1 -14.5
t9.5 -10.5t21.5 -4h37h67h81h80h64h36q23 0 34 12t2 38q-5 13 -9.5 30.5t-9.5 34.5q-5 19 -11 39h-368zM336 498v228q0 11 2.5 23t10 21.5t20.5 15.5t34 6h188q31 0 51.5 -14.5t20.5 -52.5v-227h-327z" />
    <glyph glyph-name="uniE600" unicode="&#xe600;" 
d="M971 143l-2 18l-3 17l-3 9l-2 9l-3 9l-4 10l-3 10l-4 9l-8 16l-6 14l-7 13l-5 11l-7 11l-5 9l-10 15l-12 19l-3 5l-1 2v1l2 7l3 6l2 11l2 6v6v5v5v6l-1 4l-2 10l-2 9l-3 8l-3 8l-4 7l-3 7l-3 6l-6 9l-2 3v2l-3 18l-1 11l-2 14l-3 15l-4 17l-3 9l-2 8l-3 9l-3 10l-3 9
l-4 10l-8 19l-5 9l-6 10l-5 9l-6 10l-7 10l-7 8l-8 10l-8 8l-8 8l-9 9l-5 3l-5 4l-11 7l-12 8l-12 7l-13 7l-13 6l-13 6l-14 4l-15 4l-13 4l-15 3l-13 4l-15 1l-14 2l-15 2h-15h-14h-14l-14 -1l-14 -2l-14 -2l-13 -2l-14 -3l-13 -3l-13 -4l-12 -4l-12 -4l-12 -6l-12 -5
l-10 -6l-10 -6l-10 -7l-10 -8l-8 -7l-12 -12l-10 -10l-10 -11l-9 -11l-9 -11l-7 -10l-7 -11l-4 -5l-3 -6l-7 -10l-5 -10l-5 -10l-4 -10l-4 -9l-3 -9l-3 -9l-4 -8l-4 -16l-3 -15l-1 -12l-2 -11v-8v-7v-6l-3 -3l-3 -4l-2 -4l-2 -4l-2 -9l-3 -9v-7l-1 -6v-6l-6 -8l-4 -9l-3 -8
l-2 -7l-2 -7l-2 -6v-6v-6v-5l1 -4l2 -7l1 -6l-3 -3l-9 -6l-12 -11l-7 -7l-7 -6l-5 -5l-4 -5l-9 -9l-8 -10l-7 -8l-8 -11l-7 -11l-7 -12l-7 -11l-5 -11l-5 -11l-4 -10l-4 -11l-3 -11l-3 -11l-3 -10l-2 -10l-1 -9l-2 -10l-1 -18v-17v-7l1 -7l2 -13l1 -6l2 -5l2 -6l1 -3l3 -7
l2 -2l2 -3h1h1h1h7l7 2l7 3l6 4l6 4l5 5l6 5l5 6l5 6l4 6l4 4l2 6l5 8l2 4l1 2v3l1 2h1l2 1h1v-1h1h1l3 -12l2 -10l4 -10l4 -9l4 -9l5 -8l4 -9l4 -7l5 -7l3 -6l10 -12l9 -11l8 -8l8 -7l7 -6l11 -10l4 -2l2 -2v-1l-1 -1h-1h-2l-8 -1l-7 -1l-6 -1l-7 -1l-5 -2l-6 -2l-5 -2
l-4 -3l-5 -1l-3 -3l-3 -2l-4 -3l-4 -5l-2 -3l-2 -2l-3 -6l-2 -5l-1 -5l-1 -4v-6v-3l-1 -4v-4l-1 -4v-3l1 -4l1 -4l2 -7l2 -3l2 -3l2 -3l3 -3l3 -3l2 -3l7 -5l8 -4l8 -5l9 -3l9 -4l11 -2l10 -4l11 -2l12 -2l11 -2l12 -1l24 -3h24h23h10h10h11l9 1l9 1l8 1l13 2l9 3l9 2l17 7
l8 3l7 3l12 7l10 6l8 5l6 5l9 -1l7 -1l14 -1h6h6l4 -1l4 -1l7 -3l8 -2l14 -5l15 -5l14 -4l14 -3l15 -4l15 -2l15 -2l14 -2l14 -1l15 -1h13h14h13l13 1l13 1l12 2l11 3l11 2l11 3l5 1l5 2l9 3l8 4l8 4l8 4l6 5l3 3l3 4l4 4l4 6l1 3l1 3l2 3l1 3v4l1 3l-1 5l-1 4l-2 5l-1 4
l-3 5l-3 5l-3 3l-4 4l-9 7l-10 8l-10 5l-10 6l-23 12l-6 3l-2 2l-1 1l12 11l5 6l4 5l8 12l7 11l6 11l6 10l8 20l7 16l4 12l2 4l2 3l2 2h1h1l6 -12l5 -12l4 -7l4 -5l4 -7l5 -7l4 -5l3 -2l2 -3l2 -1l3 -2l4 -2l3 -1h2h2l2 1l4 1l3 2l3 2l3 3l3 4l2 3l3 5l2 3l2 6l2 4l3 11
l2 12l2 14l1 8v6v7v9z" />
    <glyph glyph-name="uniE601" unicode="&#xe601;" 
d="M637 584q15 0 32 -2q-22 101 -116.5 168t-215.5 67q-89 0 -164.5 -37.5t-120 -103t-44.5 -143.5q0 -133 132 -226l-33 -101l115 59q83 -17 115 -17q14 0 31 1q-10 36 -10 70q0 110 81 187.5t198 77.5zM460 675q19 0 30 -11.5t11 -30t-11 -30.5t-30 -12t-34 12t-15 30.5
t15 30t34 11.5zM230 591q-19 0 -34 12t-15 30.5t15 30t34 11.5t30 -11.5t11 -30t-11 -30.5t-30 -12zM937 323q0 66 -39 122t-103 88.5t-137 32.5q-117 0 -198.5 -71t-81.5 -171.5t81.5 -171.5t198.5 -71q33 0 98 16l91 -50l-25 84q115 88 115 192zM567 365q-12 0 -22.5 10.5
t-10.5 23t10.5 23t22.5 10.5q18 0 29.5 -10t11.5 -23t-11.5 -23.5t-29.5 -10.5zM748 365q-12 0 -22.5 10.5t-10.5 23t10.5 23t22.5 10.5q18 0 29.5 -10t11.5 -23t-11.5 -23.5t-29.5 -10.5z" />
    <glyph glyph-name="uniE602" unicode="&#xe602;" 
d="M958 339q0 105 -59.5 194.5t-162.5 141.5t-224 52t-224 -52t-162.5 -141.5t-59.5 -194.5q0 -97 51 -181.5t142 -138.5v-125q0 -13 11 -19q4 -2 10 -2t11 3l57 38q1 1 3 2l65 44q49 -10 96 -10q121 0 224 52t162.5 141.5t59.5 195.5zM512 -8q-47 0 -96 10q-8 2 -16 -3
l-75 -50q-1 -1 -3 -2l-22 -15v99q0 12 -10 18q-86 48 -134.5 125t-48.5 165q0 94 54.5 174t147.5 126.5t203 46.5t203 -46.5t147.5 -126.5t54.5 -174t-54.5 -174t-147.5 -126.5t-203 -46.5zM368 323q0 -19 -13 -32.5t-32 -13.5t-32.5 13.5t-13.5 32.5t13.5 32.5t32.5 13.5
t32 -13.5t13 -32.5zM570 323q0 -19 -13.5 -32.5t-32.5 -13.5t-32 13.5t-13 32.5t13 32.5t32 13.5t32.5 -13.5t13.5 -32.5zM758 323q0 -19 -13.5 -32.5t-32.5 -13.5t-32.5 13.5t-13.5 32.5t13.5 32.5t32.5 13.5t32.5 -13.5t13.5 -32.5z" />
    <glyph glyph-name="uniE603" unicode="&#xe603;" 
d="M681 -143q-19 0 -37 3q-71 12 -111 55q-19 -6 -40 0q-40 -47 -121 -55q-68 -8 -116 12t-54 57q-4 28 20 51t62 38q-30 38 -44 83q-20 -24 -36.5 -35t-33.5 -7t-27 25q-14 24 -10.5 76t26.5 99q15 30 48 66q-12 24 -12 41q0 34 29 57q-3 18 -3 35q0 121 84.5 204t207.5 83
q121 0 207 -84t86 -203v-8v-25q24 -18 24 -59q0 -26 -8 -39q13 -19 40 -62l3 -5q22 -35 26.5 -91t-10.5 -85q-10 -22 -27 -26q-5 -1 -10 -1q-32 0 -61 41q-15 -44 -42 -80q83 -34 76 -85q-4 -33 -43 -54.5t-93 -21.5zM542 -44l9 -12q31 -41 98 -53q16 -2 32 -2q42 0 72 15
t32 33q2 15 -19 31t-58 28l-24 8l18 18q21 22 37.5 55t20.5 63l6 41l32 -48q10 -15 15.5 -22.5t14 -14t16.5 -6.5h4q12 8 12 59.5t-22 93.5l-3 5q-33 51 -47 70l-10 14l15 9q5 4 5 25q0 13 -2.5 20.5t-5.5 10t-9 6.5l-10 5l2 11q1 9 1 31v8q0 106 -76.5 180.5t-184.5 74.5
q-109 0 -184.5 -74t-75.5 -181q0 -18 4 -40l1 -10l-8 -6q-22 -15 -22 -36q0 -12 13 -37l5 -10l-8 -8q-36 -39 -50 -66q-19 -39 -23 -83t6 -63q4 -8 7 -9q12 0 50 47l33 40l4 -38q7 -65 58 -117l19 -19l-26 -8q-37 -11 -60.5 -28.5t-21.5 -32.5q3 -22 43 -35t92 -7
q76 8 105 52l5 7h13l4 -2q19 -9 33 0z" />
    <glyph glyph-name="uniE604" unicode="&#xe604;" 
d="M625 292q-17 -31 -43 -57q11 -13 28 -13q15 0 26 11t11 26q0 23 -22 33zM467.5 496q-19.5 0 -33.5 -14t-14 -33.5t14 -33t33.5 -13.5t33 13.5t13.5 33t-13.5 33.5t-33 14zM879 812h-742q-57 0 -97 -40t-40 -97v-745q0 -57 40.5 -99.5t96.5 -42.5h742q56 0 99 43t43 99
v745q0 56 -42.5 96.5t-99.5 40.5zM796 52q-11 -4 -17.5 -8t-10.5 -7.5t-4.5 -10t-0.5 -9.5t4.5 -10.5t6.5 -10.5t9 -12.5t9 -12.5q-117 35 -166 55q-65 6 -120 41.5t-80 86.5q-77 -19 -154 -8q-75 -54 -135 -83q65 54 81 118q-66 19 -107 80t-41 136q0 102 85.5 172
t206.5 70q112 0 197.5 -63t94.5 -154q9 1 18 1q106 0 180 -57.5t74 -143.5q0 -69 -38.5 -112t-91.5 -58zM753 299q-14 0 -24 -10t-10 -24t10 -24t24 -10t24 10t10 24t-10 24t-24 10zM266.5 496q-19.5 0 -33 -14t-13.5 -33.5t13.5 -33t33 -13.5t33.5 13.5t14 33t-14 33.5
t-33.5 14z" />
    <glyph glyph-name="uniE605" unicode="&#xe605;" 
d="M795 244q14 0 23 -8.5t9 -22.5t-9 -22.5t-23 -8.5t-22.5 8.5t-8.5 22.5t8.5 22.5t22.5 8.5zM646 213q0 -14 -8.5 -22.5t-22.5 -8.5q-15 0 -26.5 8.5t-11.5 22.5t9 22.5t23 8.5t25.5 -9t11.5 -22zM609 537q22 0 39 -15.5t17 -34.5q0 -23 -16 -36.5t-40 -13.5
q-23 0 -36.5 15t-13.5 35q0 19 15.5 34.5t34.5 15.5zM316 537q22 0 36 -15t14 -35q0 -22 -15 -36t-35 -14q-22 0 -36 15t-14 35t14 35t36 15zM428 157q0 107 80.5 181t193.5 74q62 0 125 -31q-7 89 -59.5 162t-137.5 114.5t-183 41.5q-101 3 -187.5 -42.5t-136.5 -125.5
t-50 -175q0 -61 22.5 -118.5t64.5 -99.5l-68 -149l174 62q112 -37 187 -37h19q-44 76 -44 143zM509 -30q-9 0 -28 -3t-28 -3q-94 0 -187 37l-255 -87l99 218q-81 99 -81 224q0 107 56.5 197.5t153.5 142.5t213.5 52t214 -52t153.5 -142.5t56 -197.5q106 -85 106 -199
q0 -67 -43 -143l74 -162l-193 68q-50 -25 -112 -25q-125 10 -199 75zM702 369q-98 0 -164 -61.5t-66 -150.5q0 -88 68 -150t162 -62q37 0 112 25l106 -37l-37 87q56 67 56 131q0 92 -69 155t-168 63z" />
    <glyph glyph-name="uniE606" unicode="&#xe606;" 
d="M512 812q-139 0 -257 -68.5t-186.5 -186.5t-68.5 -257t68.5 -257t186.5 -186.5t257 -68.5t257 68.5t186.5 186.5t68.5 257t-68.5 257t-186.5 186.5t-257 68.5zM739 175q-16 -44 -46 -84q2 -1 5.5 -2.5t12.5 -7t15.5 -12.5t11.5 -18.5t4 -24.5q0 -2 -1 -5.5t-6.5 -12.5
t-16.5 -15.5t-34.5 -11.5t-55.5 -4q-9 1 -23 3t-42.5 12.5t-39.5 25.5h-22q-11 -15 -37 -25.5t-47 -12.5l-21 -3q-32 -1 -55.5 4t-34.5 11.5t-17 15.5t-6.5 12.5t-0.5 5.5q-4 42 44 63l5 2q-13 18 -24.5 39t-16.5 33l-5 12q-15 -24 -26.5 -36t-18 -12t-11 5.5t-6.5 15.5
t-2.5 19.5t-0.5 16.5v7q6 35 24 67.5t31.5 47.5t15.5 15q-4 32 1.5 53t12.5 26l7 5q1 45 13 81.5t28.5 58.5t39 38t41 23t38.5 11t27.5 4.5t12.5 0.5t12.5 -0.5t27.5 -4.5t38.5 -11t41 -23t39 -38t28.5 -58.5t13 -81.5q1 0 3 -1.5t7 -7.5t7.5 -14.5t5 -24t-1.5 -36.5
q7 -6 16.5 -16.5t29 -44.5t25.5 -69v0v-5v-10q0 -8 -1 -15t-3 -15t-4.5 -12.5t-7.5 -6t-11.5 2.5t-16.5 15t-21 30zM739 175z" />
    <glyph glyph-name="uniE607" unicode="&#xe607;" 
d="M512 384zM0 384q0 139 68.5 257t186.5 186.5t257 68.5t257 -68.5t186.5 -186.5t68.5 -257t-68.5 -257t-186.5 -186.5t-257 -68.5t-257 68.5t-186.5 186.5t-68.5 257zM274 295l-23 -71l82 42q2 -1 15 -4l12 -2l6 -1q2 0 14 -2q3 -1 9 -1.5t9 -0.5q6 -1 17 -1q6 0 22 1
q-8 23 -8 49q0 51 27 94q26 42 73 68q46 25 100 25q10 0 23 -1q-10 46 -44 84q-34 39 -85 60q-51 22 -108 22q-65 0 -118 -27q-53 -26 -86 -73q-31 -46 -31 -101q0 -93 94 -160zM314 547q11 8 25 8q12 0 20.5 -8t8.5 -22q0 -12 -8 -21q-8 -8 -21.5 -8t-24.5 8q-11 9 -11 21
q0 13 11 22zM543 159q46 -23 101 -23q22 0 71 12l65 -36l-19 59q38 28 61 63q22 35 22 73q0 46 -28 85q-27 40 -74 63q-46 23 -98 23q-55 0 -101 -23t-72 -62q-27 -39 -27 -86t27 -86q26 -39 72 -62zM478 547q12 8 25 8q12 0 21 -8q8 -8 8 -22q0 -13 -8 -21t-21 -8t-25 8
q-10 9 -10 21q0 13 10 22zM563 376q7 8 16 8q13 0 22 -7q8 -8 8 -17t-8 -17q-9 -7 -22 -7q-9 0 -16 8q-7 7 -7 16t7 16zM693 376q7 8 16 8q13 0 21 -7t8 -17t-8 -17t-21 -7q-9 0 -16 8q-8 7 -8 16t8 16z" />
    <glyph glyph-name="uniE608" unicode="&#xe608;" horiz-adv-x="1025" 
d="M517 861q-97 0 -185 -37.5t-152 -101.5t-101.5 -152t-37.5 -185t37.5 -185t101.5 -151.5t152 -101.5t185 -38t185 38t152 101.5t101.5 151.5t37.5 185t-37.5 185t-101.5 152t-152 101.5t-185 37.5zM517 -64q-91 0 -174.5 35.5t-143.5 95.5t-95.5 143.5t-35.5 175
t35.5 174.5t95.5 143t143.5 96t174.5 36t174.5 -36t143.5 -96t95.5 -143t35.5 -174.5t-35.5 -175t-95.5 -143.5t-143.5 -95.5t-174.5 -35.5zM767 327l-2 9l-1 5l-1 4l-2 5l-2 5l-4 11l-4 8l-4 8l-3 6l-3 6l-4 6l-2 4l-5 8l-7 10l-2 3l-1 1v1l2 3l1 3l1 6l1 4v3l1 2v3l-2 6v4
l-1 5l-2 5l-2 4l-3 7l-2 3l-4 5v2l-1 1l-1 9l-1 6l-1 8l-1 7l-3 9l-1 5l-1 4l-2 5l-2 5l-1 5l-2 6l-5 9l-2 5l-4 5l-2 5l-3 5l-4 6l-4 4l-4 5l-9 9l-5 4l-3 2l-2 2l-6 4l-13 8l-7 3l-14 6l-8 3l-15 4l-8 1l-8 2l-7 1l-9 1l-7 1h-23h-8l-8 -2h-7l-8 -1l-7 -2l-7 -1l-14 -5
l-6 -2l-7 -3l-5 -3l-12 -7l-5 -3l-6 -4l-4 -4l-7 -6l-5 -5l-6 -6l-9 -12l-4 -5l-4 -6l-2 -3l-2 -3l-3 -5l-3 -5l-5 -11l-2 -4l-2 -5l-2 -5l-1 -4l-2 -8l-2 -9l-1 -6l-1 -6v-11l-1 -2l-2 -1l-1 -3l-1 -2l-2 -5l-1 -4v-4v-6l-4 -4l-2 -5l-2 -4l-1 -4l-1 -4l-1 -3v-9l1 -2l1 -4
l1 -3l-2 -1l-5 -4l-6 -6l-8 -7l-3 -2l-2 -2l-5 -6l-4 -4l-4 -5l-8 -12l-4 -6l-4 -5l-3 -7l-2 -5l-2 -6l-3 -6l-3 -11l-2 -5v-6l-1 -5l-1 -5l-1 -9v-13l1 -4v-6l1 -4l1 -3l1 -3v-1l3 -4v-1l1 -1h2l1 -1h1l2 1l4 1l4 1l3 3l3 2l4 2l3 3l2 3l3 3l2 3l2 3l1 2l3 5l1 2v1l1 1v2h1
h1v0h1l1 -7l2 -5l3 -5l2 -5l2 -5l2 -4l5 -8l4 -7l6 -7l4 -5l9 -9l4 -3l6 -1l2 -2h1v-1h-1l-1 -1l-4 -1h-4l-7 -1l-4 -1l-3 -1l-4 -2l-3 -1l-2 -2l-1 -1l-2 -1l-3 -3l-1 -2l-1 -1l-1 -3l-1 -3l-1 -2l-1 -2v-4v-3v-9v-1l2 -3l1 -2v-2l6 -6l4 -2l4 -3l4 -3l16 -5l6 -2l6 -1h6
l6 -2l7 -1l13 -1h13h24h5l5 1h5h4l7 2l10 2l9 4l8 3l7 4l5 3l5 3l3 2h5l3 -1h8h6l5 -1l4 -2l3 -1l9 -3l7 -2l8 -2l8 -2l16 -3l8 -1l8 -1l7 -1h8h22l7 1h7l7 1l6 1l6 2l6 1l2 1l3 1l5 2l4 2l5 2l4 2l3 2l2 2l4 4l1 3l2 2v1l1 2v2v2l1 1l-1 3v2l-1 2l-1 3l-1 3l-2 1l-2 3l-2 2
l-5 4l-5 4l-5 3l-19 9l-2 1l7 8l2 3l4 5l4 7l4 6l3 5l4 10l4 9l2 6l1 2l1 2l1 1h1l3 -7l3 -6l10 -14l3 -3l1 -2h2l1 -2l2 -1h2h2h2l1 1l2 1l2 1l1 2l2 2l1 1l1 3l2 2l1 2l1 3l1 6l2 7l1 7v4v11l-1 8zM681 225l-1 1l1 1v-2z" />
    <glyph glyph-name="uniE609" unicode="&#xe609;" 
d="M305 780zM305 780zM251 692q62 0 107.5 -22t75.5 -59.5t44.5 -89t14.5 -111.5q0 -43 -7 -80.5t-25 -74.5l48 -44q11 -12 7.5 -30t-16.5 -32q-16 -15 -33.5 -18t-28.5 7l-39 37q-33 -24 -67.5 -35.5t-80.5 -11.5q-60 0 -105 21t-75.5 58.5t-45.5 89.5t-15 113
q0 59 13.5 111t43 89.5t75 59.5t109.5 22zM251 216q25 0 44 5.5t36 16.5l-40 39q-10 8 -9.5 23.5t21.5 35.5q18 18 33.5 20.5t26.5 -7.5l22 -22q4 19 6 39t2 42q0 41 -7.5 77t-24.5 62.5t-44 42t-66 15.5t-66 -16t-44 -42t-24.5 -61.5t-7.5 -75.5q0 -35 7 -70t23.5 -62.5
t44 -44.5t67.5 -17zM749 692q62 0 107.5 -22t75 -59.5t44 -89t14.5 -111.5q0 -43 -6.5 -80.5t-24.5 -74.5l48 -44q11 -12 7.5 -30t-17.5 -32q-15 -15 -32.5 -18t-28.5 7l-40 37q-32 -24 -66.5 -35.5t-80.5 -11.5q-60 0 -105 21t-75.5 58.5t-46 89.5t-15.5 113q0 59 14 111
t43.5 89.5t75 59.5t109.5 22zM749 216q25 0 44 5.5t36 16.5l-40 39q-10 8 -9.5 23.5t21.5 35.5q17 18 33 20.5t27 -7.5l22 -22q4 19 6 39t2 42q0 41 -7.5 77t-24.5 62.5t-44 42t-66 15.5t-66 -16t-44 -42t-24.5 -61.5t-7.5 -75.5q0 -35 6.5 -70t23.5 -62.5t44 -44.5t68 -17z
" />
    <glyph glyph-name="uniE60A" unicode="&#xe60a;" horiz-adv-x="1472" 
d="M1306 212l-20 -13v-144l-152 85l-15 -3q-52 -10 -104 -10h-11q-121 3 -223.5 52.5t-162.5 133.5t-60 183q0 115 80.5 208.5t209.5 134.5q67 21 138 24q16 1 29 1q124 0 229.5 -49.5t166.5 -134t61 -184.5q0 -83 -43.5 -157t-122.5 -127zM469 496q0 -107 56 -201.5
t153 -158.5t218 -87q-146 -81 -323 -81q-65 0 -130 12l-15 3l-200 -111v189l-19 13q-100 67 -154.5 160.5t-54.5 197.5q0 94 45.5 180t122 148t182.5 99t223 37q74 0 147 -16q-115 -62 -183 -163.5t-68 -220.5z" />
    <glyph glyph-name="uniE60B" unicode="&#xe60b;" horiz-adv-x="1000" 
d="M939 347l-396 396q-12 12 -29 12q-16 0 -28 -12l-397 -396q-11 -12 -11 -28.5t11.5 -28.5t28.5 -12h39q17 0 28.5 -11.5t11.5 -27.5v-278q0 -33 23 -56t56 -23h119q33 0 56.5 23t23.5 56v119q0 16 11.5 28t28 12t28 -12t11.5 -28v-119q0 -33 23 -56t56 -23h119
q33 0 56.5 23t23.5 56v278q0 16 11.5 27.5t27.5 11.5h40q17 0 28.5 12t11.5 28.5t-12 28.5zM752 278v-277q0 -17 -11.5 -28.5t-27.5 -11.5h-40q-16 0 -28 11.5t-12 28.5v119q0 32 -23 55.5t-56 23.5h-79q-33 0 -56.5 -23.5t-23.5 -55.5v-119q0 -17 -11.5 -28.5t-27.5 -11.5
h-40q-16 0 -28 11.5t-12 28.5v277q0 29 -18 51t-46 27l302 303l303 -303q-28 -5 -46.5 -27t-18.5 -51z" />
    <glyph glyph-name="uniE60C" unicode="&#xe60c;" horiz-adv-x="1000" 
d="M680 192l1 -4v-3l1 -3v-3l1 -2v-4l1 -2v-3v-3l1 -2v-3v-3v-2v-2v-3v-2v-2v-3v-2v-2l-1 -2v-2v-2l-1 -2v-2l-1 -2v-2l-1 -2l-1 -1v-2l-1 -2l-1 -2l-1 -2v-1l-1 -2l-2 -2l-1 -1l-1 -2l-1 -2l-1 -1l-2 -2l-1 -2l-2 -1l-1 -2l-2 -1l-1 -2l-2 -1l-2 -2l-2 -2l-1 -1l-2 -2
l-3 -1l-2 -2l-2 -1l-2 -2l-2 -1l-3 -2l-2 -2l-3 -1l-2 -2l-3 -2l-3 -1l-2 -2l-3 -2h-4l-4 -1h-3h-4l-3 -1h-3h-4h-3l-3 -1h-3h-3h-3h-3h-3h-2h-3h-3l-2 1h-3h-2h-3l-2 1h-2h-3l-2 1h-2l-2 1l-2 1h-2l-2 1l-2 1h-2l-2 1l-2 1l-2 1l-2 1l-1 1l-2 1l-2 2l-2 1l-1 1l-2 1l-2 2
l-2 1l-1 2l-2 1l-1 2l-2 2l-2 2l-1 2l-2 1l-1 2l-2 2l-2 2l-1 3l-2 2l-1 2l-2 3l-1 2l-2 2l-2 3l-1 3l-2 3l-2 2l-3 14l-1 3v3l-1 2v3l-1 2v3v2l-1 3v2v3l1 2v3v2l1 2v3v2l1 2v2l1 3l1 2v2l1 2l1 2l1 2l1 2l1 2l1 2l1 2l1 2l1 2l2 2l1 1l1 2l2 2l1 1l2 2l1 2l2 1l2 2l1 1
l2 2l1 1l2 2l2 1l2 1l2 2l2 1l2 1l2 1l2 1l2 2l2 1l2 1h2l2 1l2 1l2 1l2 1l3 1l2 1h2l2 1l3 1h2l2 1l3 1h2h2l3 1h2h2l3 1h2h3h2h3h2h2h2h3h2h3h2l2 -1h3h2l3 -1h2l2 -1h3l2 -1l2 -1h3l2 -1l2 -1h2l2 -1l2 -1l3 -1l2 -2h2l2 -2l2 -1l2 -1l2 -1l2 -2l2 -1l2 -2l2 -1l2 -2
l1 -1l2 -2l2 -1l2 -2l1 -2l2 -2l1 -2l2 -2l2 -2l1 -2l1 -2l2 -2l1 -2l1 -3l2 -2l1 -3l1 -2zM592 304h-2h-2h-2h-2h-2h-2h-3h-2h-2h-2h-2h-2h-2h-2h-2l-2 -1h-1h-2h-2l-2 -1h-2h-2l-2 -1h-2h-1l-2 -1h-2h-2l-2 -1h-1l-2 -1h-1l-2 -1h-2l-2 -1h-1l-2 -1h-2l-1 -1l-2 -1h-1
l-2 -1l-2 -1h-1l-3 -2l-4 -1l-2 -2l-3 -1l-3 -2l-3 -2l-3 -1l-3 -2l-3 -2l-2 -2l-2 -1l-2 -1l-1 -2h-2l-1 -2l-2 -1l-1 -1l-1 -1l-2 -1l-1 -2l-1 -1l-2 -1l-1 -1l-2 -2l-1 -1l-1 -1l-1 -1l-1 -2l-2 -1l-1 -1l-1 -1l-1 -2l-1 -1l-1 -1l-1 -2l-2 -1l-1 -1l-1 -2l-1 -1l-1 -2
l-1 -1v-1l-1 -2l-2 -1v-2l-1 -1l-1 -2l-1 -1l-1 -1v-2l-1 -1l-1 -1v-2l-1 -2l-1 -1l-1 -1v-2l-1 -1v-1l-1 -2v-2l-1 -1v-1l-1 -2v-1v-2l-1 -1v-2v-1l-1 -1v-2l-1 -1v-1v-2l-1 -4v-4l-1 -4v-4l-1 -3v-3v-4l-1 -3v-3v-3v-3v-3v-2v-3v-3l1 -2v-3l1 -3v-3l1 -2v-3l1 -3l1 -3
l1 -3l1 -3l1 -3l2 -4l1 -3l1 -4l2 -4l2 -4l2 -4l8 -12l5 -4l6 -5l5 -3l6 -4l5 -4l5 -3l5 -4l3 -1l2 -2l3 -2l2 -1l3 -1l2 -2l3 -2l2 -1l2 -1l3 -2l2 -1l2 -1l3 -1l2 -2l2 -1l3 -1l2 -1l2 -1l2 -1l3 -1l2 -1l2 -1l2 -1h3l2 -1l2 -1l2 -1h3l2 -1l2 -1h2l2 -1h2l2 -1h2l2 -1h2
h2h3l2 -1h2h2h2h2l2 -1h2h2h2l2 1h2h2h2h2h2l2 1h2h2l2 1h2h2l2 1l2 1h2l2 1l2 1h2l2 1l2 1h2l2 1l2 1l2 1l2 1l2 1l2 1l2 1l2 1l2 1l3 1l2 2l2 1l2 1l2 1l2 2l2 1l2 1l2 2l2 2l2 1l2 2l3 1l2 2l2 1l2 2l2 2l2 2l2 2l3 1l2 2l2 2l2 2l3 2l4 4l5 5l4 4l5 5l5 4l5 5l5 13l1 5
l1 6v5v5l1 6v5v5v5v4v5v4v5v4v4v2v2l-1 2v2v3v1l-1 2v2v2l-1 2v2v2l-1 2v1l-1 2v2l-1 1v2l-1 2v1l-1 2l-1 1v2l-1 2v1l-1 2l-1 2l-1 1l-1 1v2l-1 2l-1 1l-1 1l-1 2l-1 1l-1 1v2l-2 1l-1 1l-1 2l-1 1l-1 2l-1 1l-1 1l-2 1l-1 2l-1 1l-1 1l-2 1l-1 2l-1 1l-2 1l-1 1l-2 1l-1 1
l-1 2l-2 1l-2 1l-1 1l-2 1l-2 1l-2 1l-1 2h-2l-2 2l-1 1l-3 1l-1 1l-2 1l-2 1l-2 1l-2 1l-4 2l-5 2l-4 2l-5 2l-5 2l-4 2l-5 2l-6 2l-5 2l-5 2l-6 2l-6 3l-6 1zM153 232l-3 -1h-2l-2 -1h-2l-2 -1l-2 -1h-2l-2 -1l-2 -1l-1 -1h-2l-2 -1l-1 -1l-2 -1l-1 -1l-2 -1l-1 -1l-1 -2
l-2 -1l-1 -1l-1 -1l-2 -2l-1 -1l-1 -1l-1 -2l-1 -1l-1 -2l-1 -1l-2 -2l-1 -1l-1 -2l-1 -2l5 -1l5 -1l2 -1h3l2 -1h2l3 -1h2h3h2h3h1h1h1h2h1h1h1h1h1h1h2h1h1l1 1h1h1l1 1h1l1 1h1l1 1h1l1 1h1l1 1l1 1l1 1h1l1 1l1 1l1 1v1l1 1l1 1l1 1v1l2 2v1v1v1l-1 2v1v1l-1 1v2v1v2v1
v1zM176 136h-1l-2 -1h-2h-1l-2 -1h-1l-1 -1h-2l-1 -1h-1l-1 -1h-1l-1 -1l-1 -1l-1 -1h-2l-1 -1v-1l-1 -1l-1 -1l-1 -1h-1v-1l-1 -1v-1l-1 -1l-1 -1v-1l-1 -1v-1l-1 -1v-1h1v-1h1l1 -1h1l1 -1h1h1v-1h1h1l1 -1h2h1h1h1h1h1h1h1h2h2l1 1h2l1 1h2l1 1h2l1 1h2l3 1l3 2l2 1l3 1
l1 1h2l1 11v1h-1v1l-1 1l-1 1l-1 1h-1v1h-1h-1v1h-1h-1h-1v1h-1h-1h-1h-1h-1h-1l-1 -1h-1h-1zM754 415v-3l1 -4l1 -3l1 -3l1 -3v-3l1 -3l1 -3l1 -2v-3l1 -2l1 -2l1 -2l2 -3l1 -2l1 -2l1 -2l1 -2l2 -2l1 -2l2 -2l2 -2l1 -2l2 -2l3 -2l2 -3l2 -2l3 -2l2 -3l3 -2l3 -3l3 -2
l52 -37l4 -4l4 -4l3 -3l3 -4l4 -3l2 -3l3 -3l3 -3l2 -3l2 -3l2 -2l3 -3l1 -3l2 -2l2 -3l2 -3l1 -2l1 -3l2 -3l1 -2l1 -4l2 -2l1 -4l1 -2l1 -4l1 -3l2 -4l1 -3l3 -8l2 -8l5 -18l2 -8l2 -7l1 -3v-4l1 -3l1 -3l1 -3v-3l1 -3v-3l1 -3v-3l1 -3v-4v-3v-3l1 -4v-3v-3v-4v-4l1 -4v-4
v-5v-4v-5l4 -58v-6l-1 -5v-4v-5v-4v-4v-3v-4v-4l1 -3v-4v-4l1 -9l1 -11h-5h-5h-4h-4h-7h-3l-4 -1h-1h-2h-1h-2h-1h-2l-2 -1h-1h-2h-2l-1 -1h-2l-2 -1h-2h-2l-2 -1l-1 -2l-1 -1l-1 -1h-1v-1l-1 -1v-1l-1 -1v-1l-1 -1v-1v-1l-16 -4h-66l-22 21h-338l-12 -5l-6 -12l-13 -4h-86
l-19 17h-47l-1 3l-2 2l-1 3l-1 2v2l-1 2l-1 2v2l-1 2v1l-1 2v2v1l-1 2v1v2v2l-1 1v2v2v3v3v4v4v2v3l-1 2v3l-8 -1l-3 -1h-4h-4h-3l-3 -1h-3h-3h-3h-2h-3h-3h-2h-2h-3l-2 1h-2h-3l-2 1h-2l-2 1h-3l-2 1l-3 1h-2l-3 1l-2 1l-3 1l-3 1l-3 1l-3 1l-4 3l-3 2l-3 2l-3 2l-3 2l-3 3
l-2 1l-3 3l-1 1h-1l-1 1l-1 1l-1 1l-1 1l-1 1l-1 1l-1 1v1l-1 1l-1 1v1l-1 1l-1 1v1l-1 1v1l-1 1l-1 1v1v1l-1 1v2v1l-1 1v1v1v2v1l-1 1v2v1v1v2v1v1v2v2v1v2l1 2v3v3l1 4l-2 1l-2 1l-2 1l-2 1l-1 1l-2 1l-1 1l-2 1l-2 2l-1 1l-2 1l-1 1l-1 2l-2 1l-1 1l-1 2l-1 1l-1 2l-1 1
l-1 2l-1 1l-1 2l-1 2l-1 1v2l-1 1l-1 2v2l-1 1v2l-1 2v2l-1 1v2l-1 2v1v2l-1 2v2v1v2v2v2l-1 1v2v2v1v2l1 2v1v2v2v1v2v2l1 1v1v2v2l1 1v1l1 2v1v1l-1 2l-1 1l-1 1l-1 2l-1 1v1l-1 1l-1 2l-1 1l-1 1v2l-1 1l-1 1l-1 1v2l-1 1v2l-1 1v1l-1 1v2l-1 1v1l-1 2v1v1l-1 2v1l-1 1v1
v2v1v1l-1 2v1v2v1v1v1v2v1v1v2v1v1v1v2v1v1v1l1 3v3l1 2l1 3v2l1 2l1 3l1 2l1 2l1 3l1 2l1 2l2 3l1 2l1 2l2 2l1 2l2 2l2 2l1 3l2 1l2 2l2 2l2 2l2 2l2 1l2 2l3 2l2 1l2 2l3 1l2 2l2 1l3 2l3 1l2 1l3 1l3 1l3 1l204 79l2 -5l2 -5v-3l1 -2l1 -3l1 -2l1 -3v-2v-1l1 -1v-1v-2
v-1v-1v-1v-1v-1v-1v-1v-1v-1v-1v-1v-1l-1 -1v-1v-1l-1 -1v-1l-1 -1l-1 -1l-1 -1v-1l-1 -1l-1 -1h-1v-1l-1 -1l-2 -1l-1 -1h-1l-1 -1h-1l-2 -1l-1 -1h-2l-1 -1l-2 -1h-2l-1 -1h-3l-62 -23l-4 -1l-4 -1l-4 -1l-4 -1l-4 -1l-4 -1l-4 -1l-3 -1l-4 -1l-3 -1l-4 -1l-3 -1l-1 -1h-2
l-1 -1l-2 -1h-1l-1 -1h-2l-1 -1l-3 3l-1 2l-2 1l-1 1l-1 2l-2 1l-1 1h-1v1h-1l-1 1l-1 1h-1h-1l-1 1h-1h-1h-1l-1 1h-1l-3 -1l-3 -1h-3l-3 -1l-2 -1l-3 -1l-2 -1l-3 -1l-2 -1l-2 -1l-3 -1l-2 -1l-2 -1l-3 -1l-2 -1l-2 -1l-2 -2l-2 -1l-2 -1l-2 -2l-2 -1l-2 -2l-1 -1l-2 -1
l-1 -2l-2 -2l-2 -1l-1 -2l-1 -1l-2 -2l-1 -2l-1 -2l-2 -1l-1 -2l-1 -2l-1 -1l-1 -2v-2l-1 -2l-1 -2l-1 -2l-1 -2v-1l-1 -2v-3v-1l-1 -2v-2v-2v-2v-2v-2v-2v-2v-3l1 -1v-3v-1l1 -3v-2l1 -2l1 -2l1 -2l1 -2l1 1v2l1 1l1 1l1 1l2 1l1 1l1 1l1 1l1 1l1 1l1 1l2 1l1 1l1 1l1 1
l2 1h1l1 1l2 1l1 1l1 1l2 1h1l2 1h1l1 1l2 1h1l2 1h1l2 1h1l2 1h1l2 1h1l2 1h1h2l1 1h2h1l2 1h1h2h1h2h1h2l1 1h2h1h2h1h2h1h2h1h2h1h1l2 -1h1h2h1h2l1 -1h2l1 -1h1l2 -1l1 -1h1l2 -1l1 -1l1 -1l1 -1l1 -1l1 -1h1l1 -2l1 -1l1 -1l1 -1l1 -1l1 -1l1 -2v-1l1 -1l1 -2l1 -1v-1
l1 -2v-1l1 -2v-1v-1l1 -2v-1v-1v-2v-1v-2v-1v-2v-1v-1v-2v-1v-1l-1 -2v-1v-1l-1 -2v-1l-1 -1l-1 -1l-1 -1v-2l-1 -1l-1 -1l-1 -1l-1 -1l-1 -1l-1 -1l-1 -1h-2l-2 -2l-3 -2l-3 -2l-3 -1l-2 -2l-3 -1l-3 -2h-2l-1 -1l-2 -1h-1l-1 -1h-2l-1 -1l-2 -1h-2l-1 -1h-1l-2 -1h-2h-1
l-2 -1h-1h-2l-1 -1h-2h-1h-2l-1 -1h-2h-2h-1h-2h-1h-2h-2h-1h-2h-1h-2h-2l-1 1h-2h-2h-1l-2 1h-2h-1l-2 1h-2l-2 1h-1l-2 1h-1l-2 1l-2 1h-2v-1l-1 -2v-2v-2l-1 -2v-2v-2v-1v-2v-2l1 -2v-1v-2l1 -2v-1l1 -2v-1l1 -2l1 -1v-2l2 -1l1 -2l1 -2l1 -1l1 -2l1 -1l1 -1l2 -2l2 -2
l1 -1l2 -1l2 -2l1 1v2l1 1l1 1v1l1 1l1 1l1 1v2l1 1l1 1l1 1l1 1l1 1l1 1l1 1l1 1v1l1 1l2 1h1l1 1l1 1l1 1l1 1l1 1h1l1 1l1 1l1 1l2 1h1l1 1h1l1 1l1 1h2l1 1l1 1h1l1 1h2h1l1 1h1h2l1 1h1h2l1 1h1h1h2h1l1 1h2h1h1h1h2h1h1l2 -1h1h1h2h1h2h1l2 -1h1l2 -1h1h1l1 -1h1l2 -1
l1 -1h1l1 -1l1 -1l1 -1h1l1 -1l1 -1l1 -1l1 -1l1 -1l1 -1v-1l1 -1l1 -1v-1l1 -1l1 -1v-1l1 -1l1 -1v-1v-1l1 -1v-1v-1l1 -1v-2v-1v-1v-1v-1v-1v-1v-1v-1v-1v-1l-1 -1v-1v-1v-1l-1 -1v-1l-1 -1h-1v-1l-1 -1l-1 -1v-1h-1l-3 -2l-3 -2l-2 -2l-3 -2l-3 -1l-2 -2l-2 -1l-3 -1
l-2 -2h-2l-1 -1h-1l-2 -1h-1l-1 -1h-1l-1 -1h-1h-1h-1l-1 -1h-1h-1h-1h-2h-1l-1 -1h-1h-1h-1h-2h-1h-1h-2h-1h-1l-3 1h-2h-3l-3 1h-4l-3 1h-3l-4 1l-4 1l1 -3v-2l1 -2v-3l1 -2l1 -2v-2l1 -3l1 -1v-2l1 -2l1 -2l1 -2l1 -1l1 -2l1 -2l1 -1l1 -1l1 -2l1 -1l1 -1l1 -1l1 -1l1 -2
h2l1 -1l1 -1l2 -1l1 -1l1 -1h2l1 -1l2 -1h2l1 -1h2l1 -1h2l2 -1h2h2h2h2l2 -1h2h2h2h2h2h3h2h3h2h3h5l5 1h6h6l5 1l-1 7l-1 7l-1 7v2l-1 3v3v3v2v3l-1 2v2v2v3v2v2v2v2v2l1 2v3v2v2v3l1 4l1 6v5l1 3v3v3v2l1 3v2l1 3v3l1 2v3l1 3l1 2v3l1 3l1 2v3l1 2l1 3l1 3l1 2l1 3l1 3
l1 2v3l1 2l1 3l1 2l1 2l2 3l1 2l1 2l1 3l1 2l1 2l1 2l1 3l1 2l1 2l1 2l1 3l1 2l2 2l1 3l1 2l2 2l1 2l1 3l2 2l2 2l1 2l2 3l1 2l2 3l2 2l2 2l1 3l2 2l2 3l4 5l4 5l4 5l57 54l1 2l1 1l1 2l2 2l1 1v2l1 2l1 1l1 2l1 2v1l1 2v2l1 2l1 1v2l1 2v1l1 4l1 3l1 3l1 6v3l1 3l1 2v2l1 2
v1v2l1 2v2v2v2v1v4l1 3v3v4v1v2v1l1 2v1v2l1 1v1v2l1 1v1h1v1v1h1v1l1 1v0l1 1l1 1v1h1v1h1l1 1h1h1l1 1h1h1h1l1 1h1h1h1h1h1h2h2l3 -1h2h2l5 -1h4h3l2 -1h2h2h3h1h1h1h1h1h1h1h1h1h1l1 1h1h1l1 -1l2 -1l1 -1l1 -2l1 -1l1 -1v-1l1 -2l1 -1v-1l1 -2l1 -1v-2l1 -1v-1v-2v-2
l1 -1v-1v-2v-2v-1v-2v-1v-2v-1v-3v-4v-3v-6v-3v-4v-3v-2v-1v-1v-2v-1v-2v-2l1 -1v-1v-2v-1l1 -1v-2l1 -1v-1l1 -2v-1l1 -2l1 -1l1 -1l1 -1l1 -1h204l-1 3v3l-1 2v3l-1 3v3v3l-1 3v2v3v3v2v3v3v3v2v3v2l1 3v3v2v3l1 2v3v2l1 2v3l1 2v3l1 2l1 4l10 8l1 -1h2h2h1h3h1h4h8h4h2h2
h2h2h2h2h1l2 -1h2h2l1 -1h1h1h1l1 -1h1h1v-1h1l1 -1l1 -1l1 -1l1 -1v-1v-2l1 -1v-2l1 -3l1 -4l1 -2v-1zM908 607v-3v-4v-3v-3v-3v-1v-1v-1v-2v-2v-1l-1 -1v-1v-1l-1 -1v-1v-2h-1l-1 -2v-1l-1 -2l-1 -1l-1 -1l-1 -2l-1 -1l-1 -2l-111 -37l-2 1h-2l-1 1h-2l-2 1h-1l-2 1h-1
l-1 1h-2l-1 1h-1l-1 1l-1 1h-1l-1 1l-2 1l-2 1l-2 2l-2 1l-3 1l-2 2l-3 2l-3 2l-1 3l-1 1v1l-1 2v1v0v1v0v1v0l1 1v0l1 1h1v1h1l1 1h2l152 53zM851 703l3 -2l3 -3l2 -2l2 -2l2 -2l2 -2l2 -2l2 -2l2 -2l1 -2l1 -1l2 -2l1 -2l2 -1l1 -2l1 -2l1 -2l1 -2l1 -2l1 -1l1 -2l1 -2
l1 -2l1 -3l1 -2v-2l2 -6l5 -11l-159 -56l-3 1l-3 1l-2 1l-2 1h-2h-1l-1 1h-1h-1v0l-1 2l-2 2l-3 4l-3 5l-1 2l-2 2l-1 2l-2 2l-2 2l-1 2l-2 2l-1 2l-1 1l-2 1v1l-1 1h-1l-1 1l-1 1l-1 1h-1l-1 1l-1 1h-1l-1 1h-1l-1 1h-1l-1 1h-1l-1 1h-2h-1l-1 1h-1h-1h-1h-2h-1h-1h-1h-2
l-1 -1h-2h-1l-1 -1h-2l-1 -1l-319 -113l-2 -1l-2 -1h-2l-3 -1h-1l-2 -1l-2 -1l-2 -1h-1l-2 -1l-1 -1l-2 -1l-1 -1l-2 -1l-1 -1l-1 -1l-1 -1l-1 -1l-1 -1l-2 -1l-1 -2v-1l-1 -1l-1 -1l-1 -1v-2l-1 -1v-1l-1 -2v-1l-1 -2v-1l-1 -1v-2v-1v-2l-1 -1v-2v-1v-2v-1l1 -2v-1v-2v-1
v-2l1 -2v-1l1 -2v-1l1 -2v-1l1 -2v-2l1 -1l1 -2v-2l1 -1l1 -2l1 -1l1 -2l1 -1l1 -2l1 -1l-176 -67l-1 2l-1 1l-1 2l-1 1l-2 2l-1 1l-1 2l-1 2l-1 1l-1 2l-1 2l-1 1l-1 2l-1 2l-1 1v2l-1 2l-1 1l-1 2v1l-1 2v2l-1 1l-1 2v2l-1 1v2l-1 2v2v1l-1 2v2v1l-1 2v2v1v2v2v1v2v1v2v2
v1v2v2v2v1v2v2l1 1v2v2l1 1v2v2l1 1v2l1 1v2l1 2v1l1 2v2l1 1l1 2v2l1 1l1 2v1l1 2l1 1l1 2l1 2l1 1v2l1 1l1 2l1 1l1 2l1 1l1 2l1 1l1 2l2 1l1 2l1 1l1 2l1 1l2 2l1 1l1 1l1 2l1 1l2 1l1 2l2 1l1 1l1 2l2 1l2 2l1 1l1 1l2 1l1 2l2 1l2 1l1 1l2 2l1 1l2 1l2 1l2 1l1 1l2 1
l2 2l2 1l1 1l2 1l2 1l2 1l2 1l2 1l2 1l2 1l2 1l2 1l2 1l352 152l2 1l2 1l2 1l3 1l2 1l2 1l2 1l2 1l3 1l2 1l2 1l3 1l2 1h2l2 1l3 1l2 1h2l3 1l2 1h2l3 1h2l2 1h3l2 1h3l2 1h2l2 1h3h2l2 1h3l5 1h5h4l5 1h5h5l4 1h5h5h5h5h4h5h9l13 1h5h6h5h5h5h4l5 -1h4h4h2h2l2 -1h2h2h2
l2 -1h2h2h2l2 -1h1l2 -1h2l2 -1h2l2 -1h2l2 -1h2l2 -1l2 -1h2l2 -1l2 -1l2 -1h2l2 -1l5 -2l4 -2l5 -2l5 -2l5 -3l6 -2z" />
    <glyph glyph-name="uniE60D" unicode="&#xe60d;" horiz-adv-x="1000" 
d="M515 753q-89 0 -170 -34.5t-139.5 -93t-93 -139.5t-34.5 -170t34.5 -169.5t93 -139t139.5 -93.5t170 -35t170 35t139.5 93.5t93 139t34.5 169.5t-34.5 170t-93 139.5t-139.5 93t-170 34.5zM515 -56q-101 0 -187 49.5t-135.5 135.5t-49.5 187.5t49.5 187t135.5 135.5
t187 50t187 -50t136 -135.5t50 -187t-50 -187.5t-136 -135.5t-187 -49.5zM652 89l22 12q-25 30 -48 65q-20 31 -40 67l-32 -18q-65 92 -107 193l33 18q-20 35 -35 69q-17 38 -30 76l-21 -12q-55 -32 -47 -79v-1q3 -11 6 -23v0q48 -186 189 -345q1 -1 1 -2l18 -18
q35 -32 91 -2zM692 111q-25 31 -49 66q-20 31 -39 66l25 13q12 -3 44 -47.5t42 -84.5zM498 436q-19 34 -34 67q-18 39 -30 78l20 11q21 -16 44.5 -71.5t20.5 -73.5z" />
    <glyph glyph-name="uniE60E" unicode="&#xe60e;" 
d="M327 7q0 -24 -13 -41t-32 -17t-32 17t-13 41v583q0 24 13 41t32 17t32 -17t13 -41v-583zM836 341q-14 -2 -64 -17.5t-94.5 -27t-56.5 -8.5q-8 2 -11.5 10.5t-4.5 17.5t-12.5 16.5t-35.5 7.5q-39 0 -82.5 -7.5t-66.5 -14.5l-24 -8q-1 -1 -3 -2t-7.5 -1t-10 2t-8 10
t-3.5 21v204q0 20 10 35.5t21 21.5l10 5q7 4 20 9t55.5 14t89.5 9q22 0 33 -7t12 -16t4.5 -17.5t13.5 -10.5q14 -4 63 6.5t91 23.5l42 12q37 7 47.5 -3t10.5 -51v-178q0 -13 -1.5 -22t-11 -19.5t-26.5 -14.5z" />
    <glyph glyph-name="uniE60F" unicode="&#xe60f;" 
d="M747 457h-147l-22 45q-3 5 -9 8l39 14q22 -37 65 -37q32 0 54 22t22 53.5t-22 53.5t-54 22q-27 0 -47.5 -16.5t-26.5 -42.5l-115 53q-31 16 -48 16q-34 0 -56 -31q-22 31 -55 31q-31 0 -52.5 -27t-21.5 -65.5t21.5 -65.5t52.5 -27q33 0 55 31l10 -12q6 -8 8 -11l78 -106
q5 -8 15 -7h1h2l78 22v-167q0 -27 0.5 -27t0.5 -26v-185q0 -11 7.5 -18.5t18.5 -7.5h16q11 0 19 7.5t9 18.5l2 185q0 11 8.5 22.5t19 11.5t19 -10.5t8.5 -22.5l5 -186q0 -11 7.5 -18.5t18.5 -7.5h16q11 0 18.5 7.5t7.5 18.5v185v53v6v52v160q0 10 -7.5 18t-18.5 8z
M319.5 495q-18.5 0 -31.5 18t-13 43t13 42.5t31.5 17.5t31.5 -17.5t13 -42.5t-13 -43t-31.5 -18zM435 495q-14 3 -22 11q-18 20 -18 50q0 25 13 42.5t31 17.5t31 -17.5t13 -42.5t-13 -43t-31 -18h-4zM501 410l-44 57l18 7l60 23q-4 -8 0 -16l21 -43z" />
    <glyph glyph-name="uniE610" unicode="&#xe610;" 
d="M881 86q0 -78 -37 -105q-40 -28 -177 -31q-42 -1 -154 -1q-219 0 -275 11q-67 13 -84 58q-9 25 -9 68q0 46 18 105t53 119t79 111.5t102 83.5t116 32t116 -32t102 -83.5t79 -111.5t53 -119t18 -105zM514 472q-65 0 -110.5 -46t-45.5 -111t45.5 -111t110.5 -46t111 46
t46 111t-46 111t-111 46zM186 357q26 41 57.5 77t72 67.5t91.5 50t105 18.5t106 -19.5t93 -52t72 -68t52 -73.5q21 -33 53.5 -32t50.5 32q4 9 7 26.5t0 45t-14.5 56.5t-42 58.5t-76 52.5t-123.5 37.5t-178 14.5q-101 0 -179.5 -15t-124 -39t-76 -53.5t-41.5 -59t-13.5 -56.5
t1 -44.5t8.5 -23.5q14 -21 36.5 -25t39.5 4.5t23 20.5z" />
    <glyph glyph-name="uniE611" unicode="&#xe611;" 
d="M736 800h-448q-40 0 -68 -28t-28 -68v-832q0 -40 28 -68t68 -28h448q40 0 68 28t28 68v832q0 40 -28 68t-68 28zM512 -160q-27 0 -45.5 18.5t-18.5 45.5t18.5 45.5t45.5 18.5t45.5 -18.5t18.5 -45.5t-18.5 -45.5t-45.5 -18.5zM768 32h-512v640h512v-640z" />
    <glyph glyph-name="uniE612" unicode="&#xe612;" 
d="M512 181l416 347q-1 0 -3.5 0.5t-3.5 0.5h-818q-1 0 -3.5 -0.5t-3.5 -0.5zM958 492q0 4 -2 11l-295 -246l295 -295q2 7 2 9v521zM68 503q-2 -7 -2 -11v-521q0 -1 2 -9l295 295zM633 234l-109 -91q-5 -4 -12 -4t-12 4l-108 90l-298 -297q7 -2 9 -2h818q2 0 9 2z" />
    <glyph glyph-name="uniE613" unicode="&#xe613;" 
d="M514 812q-104 0 -199 -40.5t-163.5 -109t-109 -163.5t-40.5 -199t40.5 -199t109 -163.5t163.5 -109t199 -40.5t198.5 40.5t163.5 109t109.5 163.5t40.5 199t-40.5 199t-109.5 163.5t-163.5 109t-198.5 40.5zM514 -171q-96 0 -183.5 37.5t-150.5 100.5t-100 150t-37 183
t37 183t100 150t150.5 100.5t183.5 37.5t183 -37.5t150 -100.5t100.5 -150t37.5 -183t-37.5 -183t-100.5 -150t-150 -100.5t-183 -37.5zM714 127l-28 -28l-100 100l28 28q11 11 22 0l78 -77q11 -12 0 -23zM417 194q-40 41 -65 80t-33.5 66t-9 50.5t4 35.5t9.5 20l102 -102
q-16 -16 16 -55q31 -39 71 -71q15 -12 23.5 -18.5t17 -10.5t14.5 -3.5t11 5.5l100 -99q-6 -6 -19 -11t-37.5 -4t-53 10.5t-69 36.5t-82.5 70zM461 380l-28 -28l-102 101l28 28q11 11 22 0l80 -79q11 -11 0 -22z" />
    <glyph glyph-name="uniE614" unicode="&#xe614;" 
d="M994 46l-4 6l-11 12q-12 14 -43 40q-44 37 -81 61l-50 32l-22 11q-17 8 -37 1q-16 -5 -24 -19l-18 -25q-3 -7 -7 -14q-4 -6 -13 -24.5t-15 -29.5q-8 -14 -22 -24.5t-32.5 -14t-38.5 7.5q-105 60 -177 128q-103 98 -139 178q-8 13 -1.5 38t27.5 35q14 7 36 15.5t32 14.5
q7 5 15 9.5t19 11.5q1 0 4.5 3.5t4.5 3.5q1 2 3 3q19 19 9 44l-3 8q-14 34 -37 72q-18 30 -43 63q-16 22 -33 38t-26 21l-10 5q-9 5 -13 7q-24 10 -51 -2q-17 -6 -32.5 -15.5t-22.5 -15t-27 -21.5q-46 -38 -72 -85t-20 -90q10 -74 91 -204.5t188.5 -233t245 -179
t215.5 -85.5q82 -11 175 75q40 37 57 75q7 14 8.5 30.5t-5.5 32.5z" />
    <glyph glyph-name="uniE615" unicode="&#xe615;" horiz-adv-x="1025" 
d="M512 -212q-104 0 -199 40q-92 39 -163 110t-110 163q-40 95 -40 199t40 199q39 92 110 163t163 110q95 40 199 40t200 -40q92 -39 162.5 -110t109.5 -163q40 -95 40 -199t-40 -199q-39 -92 -109.5 -163t-162.5 -110q-96 -40 -200 -40zM512 745q-90 0 -172.5 -35.5
t-142 -95t-95 -142t-35.5 -172.5t35.5 -172.5t95 -142t142 -95t173 -35.5t172.5 35.5t141.5 95t95 142t35.5 172.5q0 89 -33.5 170t-96.5 144t-144.5 97t-170.5 34zM512 745zM165 89h317v440h-276v52h616v-52h-276v-440h317v-51h-698v51z" />
    <glyph glyph-name="uniE616" unicode="&#xe616;" 
d="M369 -15v-1q-4 0 -8.5 -0.5t-5.5 -0.5h-3q-52 0 -89 36.5t-38 88.5q-2 53 34 91q36 39 89 40l2 1h2q40 0 74 -25q46 -16 92 45t19 96q-9 6 -18 16q-2 1 -3 3q-31 35 -33 80q-1 53 35 91.5t89 39.5h1h3q44 0 79 -28t44 -71q6 -18 8 -42.5t-1.5 -68t-28 -101t-68.5 -116.5
q-41 -55 -85 -93t-81.5 -54t-62.5 -21.5t-46 -5.5zM365 49q9 0 20.5 1t36 9t49 22.5t58 44.5t64.5 71q38 52 59.5 101.5t24 85.5t1 55t-5.5 31q-5 24 -22.5 38t-39.5 14q-27 -1 -45 -19.5t-18 -45.5q1 -22 17 -40v-1q6 -6 12 -10q4 -2 6 -5q10 -11 16.5 -25t11 -36.5
t-5.5 -53.5t-35 -64q-55 -74 -124 -74q-24 0 -47 10q-4 1 -8 4q-17 14 -38 14q-29 -1 -46.5 -20t-16.5 -45q0 -26 18.5 -43.5t44.5 -17.5h3q5 0 10 -1zM512 -148q-91 0 -174 35q-12 5 -17 17t0 24.5t17.5 17.5t24.5 0q71 -30 149 -30q104 0 192.5 51.5t140 140t51.5 192.5
t-51.5 192.5t-140 140t-192.5 51.5t-192.5 -51.5t-140 -140t-51.5 -192.5q0 -111 58 -204q8 -11 5 -24t-14.5 -20t-24.5 -4t-20 14q-68 109 -68 238q0 91 35.5 174t95.5 143t143 95.5t174 35.5t174 -35.5t143 -95.5t95.5 -143t35.5 -174t-35.5 -174t-95.5 -143t-143 -95.5
t-174 -35.5zM512 -148z" />
    <glyph glyph-name="uniE617" unicode="&#xe617;" 
d="M811.5 298q-14.5 0 -25 -10t-10.5 -25v-312q-2 -35 -14 -46.5t-47 -13.5h-400q-40 1 -53.5 13t-15.5 53v306q0 15 -10 25t-25 10t-25 -10t-10 -25v-372q0 -34 22.5 -51.5t58.5 -17.5h42v-1l422 1h42q36 0 59.5 18t23.5 51v45h1v327q0 15 -10.5 25t-25 10zM1004 304
l-461 459q-2 4 -5 7q-12 12 -29 9q-13 0 -23 -10v-1h-1l-3 -3l-463 -462q-24 -24 -2 -46q25 -26 49 -2l445 438l448 -437q24 -24 49 2q21 20 -4 46zM741 669h106v-106q0 -14 10 -24.5t24.5 -10.5t25 10.5t10.5 24.5v142q0 14 -10.5 24.5t-24.5 10.5h-141q-15 0 -25.5 -10.5
t-10.5 -25t10.5 -25t25.5 -10.5z" />
    <glyph glyph-name="uniE618" unicode="&#xe618;" 
d="M327 7q0 -24 -13.5 -41t-32 -17t-31.5 17t-13 41v583q0 24 13 41t31.5 17t32 -17t13.5 -41v-583zM835 342q-13 -3 -63.5 -18t-95 -27t-55.5 -9q-8 2 -11.5 11t-4.5 18t-13 16.5t-35 7.5q-40 0 -83 -8t-67 -15l-23 -8q-1 0 -3.5 -1t-8 -1.5t-9.5 1.5t-7.5 10t-3.5 22v203
q0 20 10 35.5t20 21.5l10 6q7 3 20 8t56 14t89 9q23 0 34 -7t11.5 -16t4.5 -17.5t14 -10.5q14 -3 62.5 7.5t91.5 22.5l42 12q36 7 47 -3t11 -51v-178q0 -13 -2 -22t-11 -19.5t-27 -13.5z" />
    <glyph glyph-name="uniE619" unicode="&#xe619;" 
d="M847 -147h-670q-46 0 -79 33t-33 79v670q0 46 33 79t79 33h670q46 0 79 -33t33 -79v-670q0 -46 -33 -79t-79 -33zM903 635q0 23 -16.5 39.5t-39.5 16.5h-670q-23 0 -39.5 -16.5t-16.5 -39.5v-670q0 -23 16.5 -39.5t39.5 -16.5h670q23 0 39.5 16.5t16.5 39.5v670zM533 168
q-9 -8 -21 -8q-13 0 -22 8l-249 251q-9 8 -9 19.5t8.5 20t20 8.5t19.5 -8l232 -232l231 232q8 8 19.5 8t20 -8.5t8.5 -20t-9 -19.5z" />
    <glyph glyph-name="uniE61A" unicode="&#xe61a;" 
d="M952 50l-3 5l-10 11q-10 13 -38 36q-41 34 -75 56l-45 29l-20 10q-15 7 -34 1q-14 -5 -21 -17l-18 -27q-2 -4 -5 -9t-11 -22l-14 -27q-12 -21 -34 -30.5t-50 2.5q-96 54 -161 116q-94 89 -126 161q-8 12 -2 35t26 32q12 6 32 14t29 13q7 5 14 9t17 10q1 0 4 3l4 4l2 2
q18 17 9 40l-2 8q-14 30 -34 65q-16 27 -39 57q-15 20 -30.5 34.5t-23.5 18.5l-9 5l-12 6q-22 9 -46 -1q-15 -6 -29.5 -14.5t-20.5 -13.5t-25 -20q-42 -34 -65.5 -77t-17.5 -81q9 -67 82.5 -186t171 -211.5t222.5 -162t196 -78.5q74 -9 158 68q36 34 52 68q7 13 8.5 28
t-6.5 30zM952 50z" />
    <glyph glyph-name="uniE61B" unicode="&#xe61b;" 
d="M208.5 748q-20.5 0 -35 -18.5t-14.5 -44.5v-641q0 -26 14.5 -45t35 -19t35 19t14.5 45v641q0 26 -14.5 44.5t-35 18.5zM240 55q0 -21 -9.5 -36.5t-22.5 -15.5t-22 15.5t-9 36.5v624q0 21 9 33t22.5 12t22.5 -12t9 -33v-624zM795 727q-20 -6 -51 -14.5t-90 -22t-74 -9.5
q-10 2 -14.5 11.5t-5.5 19t-13 17.5t-37 8q-50 0 -95.5 -8.5t-64.5 -17.5l-20 -8l-5 -3q-3 -1 -10.5 -7.5t-13.5 -13.5t-11 -19.5t-5 -25.5v-224q0 -23 9 -31.5t18 -4.5l8 3q92 33 190 33q26 0 39 -8t14 -18t4.5 -19.5t12.5 -11.5q13 -3 61.5 9.5t104 29.5t69.5 20
q20 3 30 14.5t12 21.5t2 25v195q0 45 -12 56t-52 3zM837 480q-2 -18 -11.5 -31.5t-18.5 -17.5l-9 -4q-12 -3 -60.5 -17.5t-91 -26t-53.5 -8.5q-8 2 -11.5 10.5t-5 18t-13.5 18.5t-34 10q-37 3 -85 -3.5t-77 -14.5l-29 -8q-1 -1 -3 -2t-7.5 -1.5t-9.5 1.5t-7.5 10t-3.5 21
v187q0 12 4 22.5t10 17t11.5 11.5t9.5 7l4 2q6 4 17.5 9t50.5 13t84 8q20 1 31.5 -6.5t14.5 -17.5t8.5 -19.5t15.5 -12.5q13 -3 66 9t100 25l47 14q35 6 45.5 -3.5t10.5 -48.5v-172z" />
    <glyph glyph-name="uniE61C" unicode="&#xe61c;" 
d="M223 787h30q12 -8 14.5 -28t1 -50.5t-0.5 -42.5q13 -1 43.5 0.5t50 -1.5t28.5 -15q-5 -131 -0.5 -242.5t2.5 -246.5t-17 -227q-40 3 -76 0.5t-77.5 -1t-67.5 8.5q-8 97 -9 230t1.5 240t-0.5 238q2 9 12 11.5t21 2t19.5 3.5t8.5 14q1 9 0 38t2 45t14 23zM999 506v-655
q-16 -22 -38 -38h-898q-22 16 -38 38v655q2 3 10 12.5t13 14t15 8.5t22 3v-313q0 -26 -5.5 -101t-3.5 -128t17 -83q13 -26 76.5 -41t133.5 -14t102 17q31 15 43.5 77.5t10 146.5t-8 169t-5 161.5t13.5 108.5q60 -5 144 -3t160.5 6.5t143.5 -5t92 -36.5zM581 422
q-16 -3 -21.5 -26t-3 -48t8.5 -40q67 -10 160 -10t160 10q9 16 9 53t-9 53q-38 8 -95.5 9t-105.5 -1.5t-103 0.5zM649 216q-8 53 -61 31q-48 -20 -29 -51q16 -25 50 -29q37 -4 41 30q1 9 -1 19zM771 216q-8 53 -61 31q-48 -20 -29 -51q16 -25 50 -29q37 -4 41 30q1 9 -1 19z
M893 216q-8 53 -61 31q-48 -20 -29 -51q16 -25 49 -29q38 -4 42 30q0 9 -1 19zM649 94q-8 53 -61 31q-48 -20 -29 -51q16 -24 50 -29q37 -4 41 30q1 9 -1 19zM771 94q-8 53 -61 31q-48 -20 -29 -51q16 -24 50 -29q37 -4 41 30q1 9 -1 19zM893 94q-8 53 -61 31
q-48 -20 -29 -51q16 -24 49 -29q38 -4 42 30q0 9 -1 19zM649 -28q-8 53 -61 31q-48 -20 -29 -51q16 -24 50 -28q37 -5 41 29q1 9 -1 19zM771 -28q-8 53 -61 31q-48 -20 -29 -51q16 -24 50 -28q37 -5 41 29q1 9 -1 19zM893 -28q-8 53 -61 31q-48 -20 -29 -51q16 -24 49 -28
q38 -5 42 29q0 9 -1 19zM25 -149q16 -22 38 -38h-38v38zM999 -149v-38h-38q22 16 38 38z" />
    <glyph glyph-name="uniE61D" unicode="&#xe61d;" 
d="M512 812q-113 0 -209.5 -55t-152.5 -149.5t-56 -205.5q0 -46 23 -103t58.5 -109t56 -78.5t35.5 -44.5q35 -40 52 -67q39 -60 134 -181q24 -29 59 -30q36 1 60 30q95 121 134 181q17 27 52 67q15 18 35.5 44.5t55.5 78.5t58 109t23 103q0 111 -56 205.5t-152 149.5
t-210 55zM708 108q-38 -44 -57 -73q-37 -57 -131 -177q-2 -3 -8 -4q-5 1 -8 4q-94 120 -130 177q-19 29 -57 73q-63 72 -110 155.5t-47 138.5q0 94 47 173.5t128.5 126t176.5 46.5q96 0 177.5 -46.5t128.5 -126t47 -173.5q0 -55 -47 -138t-110 -156zM512 556q-66 0 -113 -47
t-47 -113t47 -113t113.5 -47t113 47t46.5 113t-46.5 113t-113.5 47zM512 300q-39 0 -67.5 28t-28.5 68t28.5 68t68 28t67.5 -28t28 -68t-28 -68t-68 -28zM512 300z" />
    <glyph glyph-name="uniE61E" unicode="&#xe61e;" 
d="M887 594h-751q-33 0 -56.5 -21.5t-23.5 -52.5v-446q0 -30 23.5 -52t56.5 -22h751q33 0 56.5 22t23.5 52v446q0 31 -23.5 52.5t-56.5 21.5v0zM110 74v436l236 -218l-236 -219v1v0zM148 545h727l-364 -336l-363 336v0zM384 257l127 -118l129 118l225 -208h-705l224 208v0z
M678 292h-1l236 218v-436l-235 218v0zM678 292z" />
    <glyph glyph-name="uniE61F" unicode="&#xe61f;" 
d="M512 759q-93 0 -172 -46t-125 -125t-46 -171.5t48 -173.5q34 -57 278 -389q6 -10 17 -10q12 0 17 10q245 332 279 389q47 81 47 173.5t-46 171.5t-125 125t-172 46zM512 302q-47 0 -80.5 33.5t-33.5 81t33.5 81t81 33.5t81 -33.5t33.5 -81t-33.5 -81t-81.5 -33.5z
M512 302z" />
    <glyph glyph-name="uniE620" unicode="&#xe620;" 
d="M877 -140l-729 -1q-31 0 -53.5 22t-23.5 54l-1 575q0 32 22.5 54.5t54.5 22.5l230 1v-39h-230q-16 0 -27 -11.5t-11 -26.5l1 -576q0 -16 11 -27t27 -11l729 1q16 0 27 11.5t11 27.5l-1 575q0 16 -11 27t-27 11h-230v38l230 1q31 0 53.5 -22.5t23.5 -54.5l1 -575
q0 -32 -22.5 -54.5t-54.5 -22.5v0zM589 320h191q8 0 14 -5.5t6 -13.5t-6 -13.5t-14 -5.5l-191 -1q-8 0 -14 5.5t-6 13.5t6 14t14 6v0zM589 90h77q8 0 13.5 -6t5.5 -13.5t-5.5 -13.5t-13.5 -6h-77q-8 0 -13.5 5.5t-5.5 13.5t5.5 14t13.5 6v0zM589 205h192q7 0 13 -5.5
t6 -13.5t-5.5 -13.5t-13.5 -5.5l-192 -1q-8 0 -13.5 5.5t-5.5 13.5t5.5 14t13.5 6v0zM358 396q48 0 81.5 -45t34.5 -108q0 -48 -20 -87q39 -22 39 -67q0 -31 -22.5 -53.5t-53.5 -23.5h-116q-31 0 -53.5 22.5t-22.5 54.5q0 44 39 67q-20 39 -21 86q0 64 34 109t81 45v0z
M358 358q-31 0 -53.5 -34t-22.5 -81.5t22.5 -81.5t54.5 -33.5t54 34t22 81t-22.5 81.5t-54.5 34v0zM263 89q0 -16 11.5 -27t26.5 -11h115q16 0 27.5 11t11.5 27q0 25 -23 35q-32 -35 -73 -35t-73 35q-23 -10 -23 -35v0zM627 473h-231q-7 0 -13 5.5t-6 13.5t5.5 13.5
t13.5 5.5h20v38l-1 39v19v38q0 40 28 68t68 28.5t68 -28t28 -67.5v-39v-19v-38v-39h20q8 1 13.5 -5t5.5 -14t-5.5 -13.5t-13.5 -5.5v0zM569 550v38v19v39q0 23 -17 40t-41 17t-40.5 -17t-16.5 -41v-38v-19v-38v-39h115v39v0zM511 626q-8 0 -13.5 6t-5.5 13.5t5.5 13.5
t13.5 6t13.5 -5.5t5.5 -13.5t-5.5 -14t-13.5 -6v0zM511 626z" />
    <glyph glyph-name="uniE621" unicode="&#xe621;" 
d="M63 696v-2v3v-1zM133 34v-1v1v0zM145 15l-12 4v13q1 -12 12 -17zM133 644l27 -11q-3 1 -7 1q-8 0 -13.5 -4.5t-6.5 -11.5v26zM430 523v-11q-2 12 -13 16zM429 508h1h-1zM430 -63v-26l-24 9h4q8 0 13.5 5t6.5 12zM133 34v-1v1v0zM145 15l-12 4v13q1 -12 12 -17zM133 644
l27 -11q-3 1 -7 1q-8 0 -13.5 -4.5t-6.5 -11.5v26zM430 523v-11q-2 12 -13 16zM429 508h1h-1zM430 -63v-26l-24 9h4q8 0 13.5 5t6.5 12zM133 34v-1v1v0zM145 15l-12 4v13q1 -12 12 -17zM133 644l27 -11q-3 1 -7 1q-8 0 -13.5 -4.5t-6.5 -11.5v26zM430 523v-11q-2 12 -13 16z
M429 508h1h-1zM430 -63v-26l-24 9h4q8 0 13.5 5t6.5 12zM455 -173l-5 2q2 -1 5 -2zM133 34v-1v1v0zM145 15l-12 4v13q1 -12 12 -17zM133 644l27 -11q-3 1 -7 1q-8 0 -13.5 -4.5t-6.5 -11.5v26zM430 523v-11q-2 12 -13 16zM429 508h1h-1zM430 -63v-26l-24 9h4q8 0 13.5 5
t6.5 12zM174 742l297 -118q4 -2 7 -2q8 0 13 5t5 13q0 12 -12 16l-297 119q-3 1 -7 1q-7 0 -12 -5t-5 -12q0 -12 11 -17zM476 580l-362 148q-7 3 -16 3q-14 0 -24 -10t-11 -24v-3v-2v-699q1 -23 23 -31l364 -133l5 -2q5 -1 10 -1q14 0 24.5 10.5t10.5 24.5v679v7
q0 25 -24 33zM430 508h-1h1v-571q-1 -7 -6.5 -12t-13.5 -5h-4l-261 95q-11 5 -12 17v1v1v584q1 7 6.5 11.5t13.5 4.5q4 0 7 -1l257 -105q11 -4 13 -16v-4zM849 742l-297 -118q-4 -2 -7 -2q-8 0 -13 5t-5 13q0 12 12 16l297 119q3 1 7 1q7 0 12.5 -5t5.5 -12q0 -12 -12 -17z
M523 547v-7v-679q0 -14 10.5 -24.5t24.5 -10.5q5 0 10 1l5 2l365 133q21 8 22 31v4v695v2v3q0 14 -10.5 24t-24.5 10q-9 0 -16 -3l-362 -148q-24 -8 -24 -33zM878 15l-261 -95h-4q-8 0 -13.5 5t-5.5 12v571v0v4q1 12 13 16l256 105q3 1 7 1q8 0 13.5 -4.5t6.5 -11.5v-584v0
v-1v-1q-1 -12 -12 -17zM878 15z" />
    <glyph glyph-name="uniE622" unicode="&#xe622;" horiz-adv-x="1926" 
d="M805 -200l-36 17l458 980l9 2q4 1 13 3.5t32.5 5t47.5 1.5t55.5 -9.5t59 -24.5t55 -46.5t46.5 -73.5q17 -37 45.5 -67t58.5 -49t66 -33.5t64 -21.5t56.5 -11.5t39 -5t16.5 -0.5l30 -1l-178 -382h-13q-8 0 -20.5 1t-44 6t-61.5 12.5t-69.5 24t-72 37.5t-63.5 55.5
t-50 75.5q-20 45 -50.5 74t-58.5 40.5t-60.5 15t-50.5 1t-33 -5.5zM1120 -200l36 17l-458 980l-9 2q-4 1 -13 3.5t-32.5 5t-47.5 1.5t-55 -9.5t-58.5 -24.5t-55.5 -46.5t-47 -73.5q-17 -37 -45 -67t-58.5 -49t-66.5 -33.5t-64 -21.5t-56.5 -11.5t-39 -5t-15.5 -0.5l-31 -1
l178 -382h13q8 0 20.5 1t44 6t62 12.5t69.5 24t71.5 37.5t63.5 55.5t50 75.5q20 45 50.5 74t58.5 40.5t60.5 15t50.5 1t33 -5.5z" />
    <glyph glyph-name="uniE623" unicode="&#xe623;" 
d="M749 780h-474q-22 0 -36.5 -15t-14.5 -36v-882q0 -21 14.5 -36t36.5 -15h474q22 0 36.5 15t14.5 36v882q0 21 -14.5 36t-36.5 15zM512 -135q-14 0 -24 10t-10 24t10 24t24 10t24 -10t10 -24t-10 -24t-24 -10zM734 -10h-444v664h444v-664z" />
    <glyph glyph-name="uniE624" unicode="&#xe624;" 
d="M512 812q-139 0 -257 -68.5t-186.5 -186.5t-68.5 -257t68.5 -257t186.5 -186.5t257 -68.5t257 68.5t186.5 186.5t68.5 257t-68.5 257t-186.5 186.5t-257 68.5zM448 492h-85v-380q0 -42 -23 -65q-23 -24 -59 -24h-46v64h33q14 0 21 5q10 9 10 27v373h-86v64h235v-64z
M469 556h342v-64h-128v-43h61q29 0 47 -18q20 -19 20 -42v-238h-64v208q0 14 -7 21q-6 5 -20 5h-160q-11 0 -19 -5.5t-8 -14.5v-214h-64v227q0 22 14 41q10 14 22 21q17 9 41 9h73v43h-150v64zM811 6q-113 44 -171 115q-33 -41 -79 -70q-40 -25 -92 -43v64q46 16 80 40
q70 51 70 115v116h64v-107q0 -59 14 -82q32 -50 114 -84v-64z" />
    <glyph glyph-name="uniE625" unicode="&#xe625;" 
d="M0 458h1024v-124h-1024v124zM126 334h128v-488h-128v488zM446 334h128v-476h-128v476zM768 334h124v-476h-124v476zM0 -52h1024v-128h-1024v128zM1024 592l-514 188l-510 -188v-68h1024v68z" />
    <glyph glyph-name="uniE626" unicode="&#xe626;" 
d="M219 672q-20 0 -34 -18t-14 -44v-622q0 -25 14 -43.5t34 -18.5t34 18.5t14 43.5v622q0 26 -14 44t-34 18zM241 -3q0 -16 -6.5 -27.5t-16 -11.5t-16.5 11.5t-7 27.5v607q0 16 6.5 24.5t16.5 8.5t16.5 -8.5t6.5 -24.5v-607zM791 652q-20 -6 -50 -14.5t-87.5 -21.5t-71.5 -9
q-11 2 -15 11.5t-5 18.5t-12.5 16.5t-36.5 7.5q-49 0 -93 -8.5t-63 -16.5l-20 -8q-2 -1 -4.5 -2.5t-10 -7.5t-13.5 -13t-10.5 -19t-4.5 -25v-217q0 -23 8.5 -31t17.5 -5l8 4q90 32 185 32q25 0 37.5 -8t14 -17.5t5 -19t12.5 -11.5q12 -3 59.5 9.5t101 28.5t68.5 19
q18 4 28.5 15t12 20.5t1.5 24.5v190q0 43 -11.5 53.5t-50.5 3.5zM821 421q-1 -16 -9.5 -28t-16.5 -16l-8 -3q-12 -3 -55 -16t-81 -22.5t-48 -7.5q-7 1 -12 9t-8.5 16.5t-15.5 16t-32 9.5q-34 2 -79 -3t-74 -11l-29 -7q-1 0 -3 -1t-6.5 -1t-8.5 1.5t-7 8.5t-3 18v162
q0 17 9 30.5t17 18.5l9 5q5 3 15.5 7.5t45.5 11.5t75 7q18 1 29.5 -6.5t15.5 -18t10 -20t15 -11.5q12 -3 57.5 6.5t85.5 20.5l40 11q35 6 53.5 -2t18.5 -40q1 -127 0 -145zM821 421z" />
    <glyph glyph-name="uniE627" unicode="&#xe627;" 
d="M896 -116h-768q-53 0 -90.5 37.5t-37.5 90.5v576q0 53 37.5 90.5t90.5 37.5h768q53 0 90.5 -37.5t37.5 -90.5v-576q0 -53 -37.5 -90.5t-90.5 -37.5zM160 652l352 -306l352 306h-704zM960 588q0 27 -20 47l-428 -367l-428 367q-20 -20 -20 -47v-576q0 -26 18.5 -45
t45.5 -19h768q26 0 45 19t19 45v576z" />
    <glyph glyph-name="uniE628" unicode="&#xe628;" 
d="M510 -129q-117 79 -165 130q-190 206 -251 469q-16 72 -15 139q0 49 47 63q90 26 137.5 39.5t66.5 -30.5q28 -62 59 -135q19 -43 -22 -65q-56 -31 -82 -43q-21 -11 -22 -36q-2 -36 16 -90q29 -83 90 -146q9 -9 24 -20q25 -18 52 -2q15 9 76 40q42 22 71 -17
q45 -62 89 -122q27 -37 -8 -66q-15 -13 -53.5 -45t-59.5 -50q-4 -3 -11 -6t-12 -5l-5 -2q-5 -1 -11 -2zM964 341q-37 -170 -199 -255q-23 -12 -39 2q-13 12 -10 27t20 25q36 19 59 39q63 51 90.5 122.5t19.5 140.5t-52 132.5t-117 99.5q-146 72 -298 3q-41 -19 -56 10
q-12 26 30 45q55 26 120 35q2 0 6 1t6 1q10 2 35 2t44 -2q36 -5 56 -10q226 -61 282 -275q10 -35 10 -75q0 -36 -7 -68zM504 308h63q23 -1 27 -17q3 -11 -3 -19t-17 -9h-128q-16 0 -20 13q-6 15 5 27q53 56 69 74q2 2 23 29q6 7 8 17q3 11 -1 20.5t-13 13.5q-21 9 -34 -12
q-3 -4 -6.5 -13t-4.5 -10q-10 -22 -33 -14q-16 6 -13 29q4 30 29 49t54 18.5t55 -17.5q17 -13 22 -34.5t-4 -42.5q-12 -27 -45 -64q-2 -3 -33 -38zM779 419v-49q0 -10 9 -11q22 -2 22 -21q0 -20 -22 -22q-9 0 -9 -9q1 -4 0 -17q0 -27 -26 -27q-14 0 -19.5 6.5t-5.5 20.5
q0 19 -3.5 22.5t-23.5 3.5h-59q-18 0 -23 10q-5 12 3 26q3 5 78 131q17 30 51 20q28 -7 28 -41v-43zM679 360h40q9 0 9 5v85h-1q-1 1 -2 1q-17 -34 -46 -91z" />
    <glyph glyph-name="uniE629" unicode="&#xe629;" 
d="M243 694v-575q4 6 13 15t38.5 29t61.5 31.5t81 11t99 -20.5q11 -7 40 -25t45 -26.5t43 -20.5t54.5 -17.5t57.5 -5.5t59 7t50 16.5t37.5 19.5t24.5 16t8 7v552q-3 -3 -9 -8.5t-26.5 -19.5t-42 -24.5t-54.5 -19t-66 -8t-75 14t-83 41.5q-44 33 -103.5 50.5t-110.5 4.5
q-32 -9 -68 -20t-55 -18zM116 -147q-20 0 -34 14t-14 34v799q0 20 14 34t34 14t34 -14t14 -34v-799q0 -20 -14 -34t-34 -14zM116 -147z" />
    <glyph glyph-name="uniE62A" unicode="&#xe62a;" 
d="M509 35q-17 0 -28 1l-358 35q-21 2 -35.5 18t-14.5 38v489q0 12 8 20t19.5 8t19.5 -8t8 -20v-489l358 -36q22 -2 45 0l365 35v566l-340 -35q-28 -2 -56 0l-408 41q-11 2 -18 10.5t-6 20t9.5 19t20.5 5.5l408 -41q22 -2 45 0l345 36q22 2 38.5 -13t16.5 -37v-571
q0 -22 -14.5 -38t-35.5 -18l-365 -35q-11 -1 -27 -1zM827 330l-269 -31l-1 9l269 32l1 -1l1 -8zM562 278q-10 0 -17 6.5t-8 16.5q-2 10 4.5 18.5t17.5 9.5l264 31q9 0 16 -6.5t9 -15.5q1 -11 -5.5 -19t-16.5 -10zM358 243h-4l-113 10q-18 2 -30.5 15.5t-12.5 31.5v112
q0 19 14 31.5t33 10.5l114 -14q17 -2 29.5 -16t12.5 -31v-107q0 -18 -12.5 -30.5t-30.5 -12.5zM240 412v-112q0 -5 5 -6l113 -9q1 0 1 1v107q0 5 -5 6z" />
    <glyph glyph-name="uniE62B" unicode="&#xe62b;" 
d="M957 559h-890v-554h890l-172 277zM552 288v-36h-88v-50h88v-36h-88v-73h-46v73h-91v36h91v50h-91v36h78l-95 164h51q67 -122 81 -155h1q5 14 27 55l54 100h48l-96 -164h76z" />
    <glyph glyph-name="uniE62C" unicode="&#xe62c;" 
d="M9 703v-809h1013v809h-1013zM515 290l-397 353h794zM319 384l-250 -362v584zM364 343l151 -134l151 134l268 -388h-838zM712 384l249 222v-584z" />
    <glyph glyph-name="uniE62D" unicode="&#xe62d;" 
d="M315 -212h-63l2 1024l61 -42v-982zM766 454l-459 -320v642zM772 482zM320 796z" />
    <glyph glyph-name="uniE62E" unicode="&#xe62e;" 
d="M147 269v-396q0 -30 21 -51t51 -21h272q-2 7 -2 14v292q0 30 24.5 51t59.5 21h71q35 0 60 -21t25 -51v-292q0 -7 -2 -14h84q31 0 52 21t21 51v388l-369 290zM997 416l-136 113v8v158q0 30 -21 51t-50 21h-54q-30 0 -51 -21t-21 -51v-3l-108 90q-20 17 -47 17t-47 -17
l-434 -353q-24 -19 -27.5 -50.5t16 -56t50.5 -28t55 16.5l386 314l393 -327q24 -20 55 -17t51 27.5t17 56t-27 51.5z" />
    <glyph glyph-name="uniE62F" unicode="&#xe62f;" 
d="M536 761h-531q-5 0 -5 -5v-912q0 -5 5 -5h181v177h168v-177h182q4 0 4 5v912q0 5 -4 5zM231 149h-128v126h128v-126zM231 338h-128v126h128v-126zM231 527h-128v127h128v-127zM437 149h-128v126h128v-126zM437 338h-128v126h128v-126zM437 527h-128v127h128v-127z
M997 464h-350q-11 0 -18.5 -7.5t-7.5 -18.5v-596q0 -3 2 -3h141v117h119v-117h138q3 0 3 3v596q0 11 -8 18.5t-19 7.5zM969 54h-295v63h295v-63zM969 180h-295v63h295v-63zM969 306h-295v63h295v-63z" />
    <glyph glyph-name="uniE630" unicode="&#xe630;" 
d="M345 454zM453 443l-63 40zM222 731q-33 0 -56.5 -23.5t-23.5 -56.5v-704q0 -33 23.5 -56.5t56.5 -23.5h656v16v6v10v48v32v64v9v23v656h-656zM334 683h112v-179l-43 28h-25l-44 -28v179zM830 -85h-576q-13 0 -22.5 9t-9.5 23v32q0 13 9.5 22.5t22.5 9.5h576v-96zM830 59
h-576q-39 0 -64 -33v625q0 13 9.5 22.5t22.5 9.5h64v-240h32h10l62 40l63 -40h10h31v240h336v-624z" />
    <glyph glyph-name="uniE631" unicode="&#xe631;" 
d="M512 748q91 0 174 -35.5t143 -95.5t95.5 -143t35.5 -174t-35.5 -174t-95.5 -143t-143 -95.5t-174 -35.5t-174 35.5t-143 95.5t-95.5 143t-35.5 174t35.5 174t95.5 143t143 95.5t174 35.5v0zM512 -84q104 0 192.5 51.5t140 140t51.5 192.5t-51.5 192.5t-140 140
t-192.5 51.5t-192.5 -51.5t-140 -140t-51.5 -192.5t51.5 -192.5t140 -140t192.5 -51.5v0zM330 246l158 -160q15 -15 35 -7l1 1q1 0 1 1q6 2 8 5v0l160 159q9 9 9 22.5t-9.5 23t-22.5 9.5t-23 -10l-103 -103v305q0 13 -9.5 22.5t-22.5 9.5t-22.5 -9.5t-9.5 -22.5v-307
l-105 106q-9 10 -23 10q-13 0 -22 -9.5t-9.5 -22.5t9.5 -23v0zM330 246z" />
    <glyph glyph-name="uniE632" unicode="&#xe632;" horiz-adv-x="1115" 
d="M576 500zM1115 -128q0 -34 -17.5 -59t-59.5 -25h-961q-43 0 -60 25t-17 59q0 45 20 94.5t55.5 92.5t92.5 70.5t125 27.5q2 -3 7 -9.5t26 -22t48 -27.5t76 -21.5t107.5 -9.5t107.5 9t76.5 22.5t47 27t26.5 22.5l7 9q67 0 124.5 -27.5t93 -70.5t55.5 -92.5t20 -94.5v0z
M564 812q-80 0 -147.5 -43.5t-106.5 -119t-39 -164.5t39 -164t106.5 -119t147 -44t147 44t106.5 119t39 164t-39 164.5t-106.5 119t-146.5 43.5v0zM564 812z" />
    <glyph glyph-name="uniE633" unicode="&#xe633;" 
d="M875 300v-512h-257v342h-214v-342h-256v513h-147l510 511l512 -512h-148zM103 344h45h42v-513h172v342h299v-342h171v513h43h44l-408 408z" />
    <glyph glyph-name="uniE634" unicode="&#xe634;" 
d="M740 722l-57 59l-399 -397l399 -397l57 59l-336 338z" />
    <glyph glyph-name="uniE635" unicode="&#xe635;" 
d="M1002.5 577q-8.5 0 -15 -6t-6.5 -15v-515q0 -52 -37 -89t-89 -37h-686q-52 0 -89 37t-37 89v686q0 52 37 89t89 37h515q9 0 15 6.5t6 15t-6 15t-15 6.5h-515q-70 0 -119.5 -49.5t-49.5 -119.5v-686q0 -70 49.5 -119.5t119.5 -49.5h686q70 0 119.5 49.5t49.5 119.5v515
q0 9 -6.5 15t-15 6zM274 298l-1 -1t-1 -2l-123 -245q-6 -14 4 -25q7 -6 16 -6q5 0 9 2l245 123q1 0 2 1l1 1l2 2h1l466 466v0l71 71q28 28 28 67t-28 67l-19 19q-28 28 -67 28t-67 -28l-537 -537q0 -1 -1 -2zM297 250l81 -81l-162 -81zM843 807q15 15 37 15t37 -15l18 -18
q16 -15 16 -37t-16 -37l-55 -55l-92 92zM757 722l93 -93l-436 -436l-93 93z" />
    <glyph glyph-name="uniE636" unicode="&#xe636;" 
d="M512 838q-91 0 -173.5 -35.5t-142 -95t-94.5 -142t-35 -173t35 -173t94.5 -142.5t142 -95t173.5 -35t173.5 35t142 95t94.5 142.5t35 173t-35 173t-94.5 142t-142 95t-173.5 35.5zM793 392v-308q0 -16 -11 -27.5t-27 -11.5h-481q-16 0 -27.5 11.5t-11.5 27.5v308h-113
q-7 17 6 30l366 365q8 9 20 9t20 -9l366 -365q13 -13 6 -30h-113z" />
    <glyph glyph-name="uniE637" unicode="&#xe637;" 
d="M796 -23zM800 -30q-2 4 -4 7q2 -3 4 -7zM781 287l-255 232v-1q-7 7 -15.5 7t-15.5 -7v1l-255 -232v-1q-8 -6 -8 -17q0 -9 7 -16t16 -7t16 6l240 218l239 -218q7 -6 16 -6t16 7t7 16q0 10 -8 17v1zM975 -32q0 -19 -14 -33t-33 -14h-835q-19 0 -33 14t-14 33v835
q0 19 14 33t33 14h835q19 0 33 -14t14 -33v-835zM928 896h-835q-39 0 -66 -27t-27 -66v-835q0 -39 27 -66t66 -27h835q39 0 66 27t27 66v835q0 39 -27 66t-66 27z" />
    <glyph glyph-name="uniE638" unicode="&#xe638;" 
d="M612 -5h-208q-23 0 -40 17t-17 40v200h-1h-108q-31 0 -41 23.5t11 45.5l260 279q16 18 40 18t41 -18l260 -279q21 -22 11 -45.5t-41 -23.5h-108h-1v-200q0 -23 -17 -40t-41 -17zM274 309h72q24 0 41 -17t17 -40v-200h208h1v200q0 23 17 40t41 17h72l-235 252zM788 661
h-559q-12 0 -20.5 8.5t-8.5 20.5t8.5 20t20.5 8h559q12 0 20.5 -8t8.5 -20t-8.5 -20.5t-20.5 -8.5z" />
    <glyph glyph-name="uniE639" unicode="&#xe639;" 
d="M70 896q-31 0 -50.5 -20.5t-19.5 -53.5v-870q0 -33 19.5 -56.5t50.5 -23.5h954v1024h-954zM742 349l-204 208v-442h-26v442l-211 -208l-20 18l238 238v0l239 -238zM781 640h-512v26h512v-26z" />
    <glyph glyph-name="uniE63A" unicode="&#xe63a;" 
d="M336 693q-7 -4 -9.5 -13t2 -16.5t13 -10t16.5 2t10.5 13.5t-2 16.5t-13.5 10t-17 -2.5zM358 123q-8 4 -16.5 2t-13 -10t-2 -17t10 -13.5t16.5 -2t13.5 10.5t2 16.5t-10.5 13.5zM666 655q8 -4 16.5 -1.5t13 10t2.5 16.5t-10 13.5t-17 2t-13.5 -10t-2 -16.5t10.5 -14z
M238 573q-8 4 -17 2t-13.5 -10t-2 -17t10.5 -13.5t16.5 -2t13 10.5t2.5 16.5t-10 13.5zM512 82q-9 0 -15.5 -6.5t-6.5 -15.5t6.5 -15.5t15.5 -6.5t15.5 6.5t6.5 15.5t-6.5 15.5t-15.5 6.5zM216 243q-8 -4 -10.5 -13t2 -16.5t13.5 -10t17 2t10 13t-2.5 16.5t-13 10.5
t-16.5 -2.5zM183 411q-9 0 -15.5 -6.5t-6.5 -15.5t6.5 -15.5t15.5 -6.5t15.5 6.5t6.5 15.5t-6.5 15.5t-15.5 6.5zM842 411q-10 0 -16 -6.5t-6 -15.5t6 -15.5t15.5 -6.5t15.5 6.5t6 15.5t-6 15.5t-15 6.5zM786 573q-7 -5 -9.5 -13.5t2 -16.5t13.5 -10.5t16.5 2t10 13.5t-2 17
t-13.5 10t-17 -2zM512 872q-98 0 -187.5 -38t-154.5 -103t-103 -154.5t-38 -187.5t38 -187.5t103 -154.5t154.5 -103t187.5 -38t187.5 38t154.5 103t103 154.5t38 187.5t-38 187.5t-103 154.5t-154.5 103t-187.5 38zM512 -50q-89 0 -170.5 34.5t-140.5 93.5t-93.5 140.5
t-34.5 170.5t34.5 170.5t93.5 140.5t140.5 93.5t170.5 34.5t170.5 -34.5t140.5 -93.5t93.5 -140.5t34.5 -170.5t-34.5 -170.5t-93.5 -140.5t-140.5 -93.5t-170.5 -34.5zM666 123q-8 -5 -10.5 -13.5t2 -16.5t13.5 -10.5t17 2t10 13.5t-2.5 17t-13 10t-16.5 -2zM710 411h-113
q-6 23 -23 40t-40 23v245q0 9 -6.5 15.5t-15.5 6.5t-15.5 -6.5t-6.5 -15.5v-245q-29 -8 -47.5 -31.5t-18.5 -53.5q0 -36 26 -62t62 -26q30 0 53.5 18.5t31.5 47.5h113q9 0 15.5 6.5t6.5 15.5t-6.5 15.5t-15.5 6.5zM512 345q-18 0 -31 13t-13 31t13 31t31 13t31 -13t13 -31
t-13 -31t-31 -13zM808 243q-7 5 -16 2.5t-13.5 -10.5t-2 -16.5t10 -13t16.5 -2t13.5 10t2 16.5t-10.5 13zM808 243zM285 221q-19 9 -19 26q0 12 9 19.5t23 7.5q13 0 21.5 -7t8.5 -18q0 -19 -20 -28v-1q23 -8 23 -29q0 -13 -9.5 -21t-27.5 -8q-14 0 -23 8t-9 20q0 21 23 30v1
zM296 214q-20 -8 -20 -23q0 -8 5.5 -13t15.5 -5q9 0 14.5 5t5.5 13q0 15 -21 23zM314 247q0 7 -4.5 11.5t-12.5 4.5q-7 0 -12 -4.5t-5 -11.5q0 -13 17 -21q17 8 17 21zM345 216q0 28 9.5 43t27.5 15q34 0 34 -56q0 -27 -9.5 -41.5t-27.5 -14.5q-16 0 -25 13.5t-9 40.5z
M359 216q0 -43 22 -43q21 0 21 44q0 45 -21 45q-22 0 -22 -46zM485 272l-52 -126h-13l52 126h13zM487 194h65v8l27 15h-66v10h82v-11l-31 -19v-3h60v-10h-60v-21q0 -17 -17 -17q-9 0 -22 1q0 4 -1 11q11 -1 21 -1q7 0 7 8v19h-65v10zM492 251h127v-28h-11v18h-105v-18h-11
v28zM503 274l8 6q8 -9 17 -20l-10 -7q-8 12 -15 21zM540 278l10 6q8 -12 15 -23l-10 -6q-6 11 -15 23zM580 259q10 10 18 22l10 -7q-9 -11 -20 -22zM635 270h48v-114h-11v11h-26v-13h-11v116zM672 259h-26v-35h26v35zM646 177h26v37h-26v-37zM687 252h50v31h11v-31h20v-10
h-20v-76q0 -18 -18 -18h-23q-1 5 -3 12q15 -1 23 -1q10 0 10 10v73h-50v10zM703 228q11 -20 17 -32q-4 -2 -11 -6q-6 13 -16 33z" />
    <glyph glyph-name="uniE63B" unicode="&#xe63b;" 
d="M903 49h-782q-23 0 -39.5 16.5t-16.5 39.5v558q0 23 16.5 39.5t39.5 16.5h782q23 0 39.5 -16.5t16.5 -39.5v-558q0 -23 -16.5 -39.5t-39.5 -16.5v0zM840 601q-8 8 -19.5 8t-19.5 -8l-97 -96l-136 -136q-25 -23 -58 -23q-29 0 -54 21v-2l-183 183l2 1l-52 52q-8 8 -19.5 8
t-19.5 -8.5t-8 -20t8 -19.5l176 -177l-176 -177q-8 -8 -8 -19.5t8 -20t19.5 -8.5t19.5 8l177 177l46 -46q3 -4 7 -8l3 -3v1q24 -19 53 -19q34 0 59 25v-2l54 53l177 -178q8 -8 19.5 -8t20 8.5t8.5 20t-8 19.5l-178 177l179 177q8 8 8 19.5t-8 20.5v0zM840 601z" />
    <glyph glyph-name="uniE63C" unicode="&#xe63c;" 
d="M495 550h134q7 0 12 5t5 12t-5 12t-12 5h-134q-7 0 -12 -5t-5 -12t5 -12t12 -5zM696 550q7 0 11.5 5t4.5 12t-4.5 12t-11.5 5t-12 -5t-5 -12t5 -12t12 -5zM762.5 550q6.5 0 11.5 5t5 12t-5 12t-11.5 5t-11.5 -5t-5 -12t5 -12t11.5 -5zM763 417h-134q-7 0 -12 -5t-5 -12
t5 -12t12 -5h134q6 0 11 5t5 12t-5 12t-11 5zM763 350h-134q-7 0 -12 -5t-5 -12t5 -12t12 -5h134q6 0 11 5t5 12t-5 12t-11 5zM763 483h-134q-7 0 -12 -4.5t-5 -11.5t5 -12t12 -5h134q6 0 11 5t5 12t-5 11.5t-11 4.5zM428 550q7 0 12 5t5 12t-5 12t-12 5t-12 -5t-5 -12
t5 -12t12 -5zM361 249h402q6 0 11 5t5 12t-5 12t-11 5h-402q-7 0 -11.5 -5t-4.5 -12t4.5 -12t11.5 -5zM361 182h402q6 0 11 5t5 12t-5 12t-11 5h-402q-7 0 -11.5 -5t-4.5 -12t4.5 -12t11.5 -5zM846 684h-568q-14 0 -24 -10t-10 -23v-67h-67q-13 0 -23 -10t-10 -24v-368
q0 -41 29.5 -70.5t70.5 -29.5h602q14 0 24 10t10 24v535q0 13 -10 23t-24 10zM846 116h-602q-27 0 -47 19.5t-20 46.5v368h67v-351q0 -7 5 -12t12 -5t12 5t5 12v452h568v-535zM361 550q7 0 12 5t5 12t-5 12t-12 5t-11.5 -5t-4.5 -12t4.5 -12t11.5 -5zM361 316h168q6 0 11 5
t5 12v134q0 7 -5 11.5t-11 4.5h-168q-7 0 -11.5 -4.5t-4.5 -11.5v-134q0 -7 4.5 -12t11.5 -5zM378 450h134v-100h-134v100zM378 450z" />
    <glyph glyph-name="uniE63D" unicode="&#xe63d;" 
d="M999 617q-2 -10 -2 -12q-15 -54 -69 -67q-26 -7 -75 -18q-6 -1 -6 -8v-122v-122q1 -57 -45 -93q-32 -26 -87 -42q-49 -15 -114 -21q-65 -5 -133 -2q-102 4 -169 26q-53 17 -83 44q-40 35 -39 86v246q0 7 -6 8q-38 8 -75 17q-29 7 -47.5 28t-23.5 50v1v1v19q0 2 1 3
q4 28 22.5 48.5t45.5 27.5q44 10 351 81q9 2 28.5 6.5t29.5 6.5h17q3 0 7 -1t7 -1q43 -11 180.5 -42.5t212.5 -48.5q55 -13 70 -68q0 -2 1 -6.5t1 -6.5v-18zM786 504h-2t-3 -1q-34 -8 -114.5 -26.5t-123.5 -28.5q-30 -7 -50 -2l-237 54q-4 1 -19 4v-7v-228q0 -21 16 -35
q7 -7 13 -10q26 -19 68 -31q57 -18 129 -22q102 -6 187 11q58 12 97 34q21 12 32 26q7 10 7 23v232v7zM511 504q1 0 3 0.5t3.5 0.5t2.5 1q50 11 151 34.5t152 34.5l90 21q20 5 25 23q3 14 -4.5 24.5t-22.5 13.5q-65 15 -194.5 45t-194.5 45q-10 3 -20 0q-54 -12 -161 -37
q-153 -35 -229 -53q-26 -6 -26 -31q0 -24 26 -30l367 -85q16 -3 32 -7zM931 -44q-6 2 -10 3q-21 6 -33 24.5t-10 41.5q5 45 25 82q7 13 18 24q17 18 34 0q11 -12 20 -27q18 -33 23 -75q1 -2 1 -4v-15q0 -2 -1 -3q-7 -37 -43 -48q-1 -1 -4.5 -1.5t-4.5 -0.5q-5 -1 -15 -1z
M908 338v135q0 13 7.5 21.5t19.5 9.5q13 2 23 -6.5t11 -21.5v-4v-271q0 -16 -12.5 -25.5t-28.5 -4.5q-20 8 -20 30v137z" />
    <glyph glyph-name="uniE63E" unicode="&#xe63e;" 
d="M887 682h-212v71q0 22 -15.5 37t-36.5 15h-222q-21 0 -36.5 -15t-15.5 -37v-71h-212q-30 0 -50.5 -21t-20.5 -51v-558q0 -29 20.5 -50t50.5 -21h750q30 0 50.5 21t20.5 50v558q0 30 -20.5 51t-50.5 21zM386 753q0 6 4.5 10.5t10.5 4.5h222q6 0 10.5 -4.5t4.5 -10.5v-70
h-252v70zM942 309h-321v-15q0 -7 -5 -12t-12 -5h-181q-7 0 -12 5t-5 12v15h-332v32h332v15q0 7 5 12t12 5h181q7 0 12 -5t5 -12v-15h321v-32z" />
    <glyph glyph-name="uniE63F" unicode="&#xe63f;" 
d="M512 834q-186 0 -318 -132t-132 -318t132 -318t318 -132t318 132t132 318t-132 318t-318 132zM512 -23q-9 0 -15 6.5t-6 15t6 14.5t15 6t15 -6t6 -14.5t-6 -15t-15 -6.5zM512 40q-9 0 -15 6.5t-6 15t6 14.5t15 6t15 -6t6 -14.5t-6 -15t-15 -6.5zM512 103q-9 0 -15 6.5
t-6 15t6 14.5t15 6t15 -6t6 -14.5t-6 -15t-15 -6.5zM743 684h-219l214 -214q6 -6 6 -15t-6 -15t-14.5 -6t-14.5 6l-176 176v-429q0 -9 -6 -15t-15 -6t-15 6t-6 15v429l-175 -176q-7 -6 -15.5 -6t-14.5 6t-6 15t6 15l214 214h-219q-5 0 -8.5 3.5t-3.5 8.5t3.5 8.5t8.5 3.5
h462q5 0 8.5 -3.5t3.5 -8.5t-3.5 -8.5t-8.5 -3.5z" />
    <glyph glyph-name="uniE640" unicode="&#xe640;" 
d="M511.5 649q-99.5 0 -170 -70.5t-70.5 -170.5q0 -83 52 -148q38 -49 69 -101v-1v-141q0 -10 7 -17t17 -7h27q1 -25 19 -42t43 -17h14q25 0 43 17t19 42h27q10 0 17 7t7 17v141v1q31 53 69 101q52 65 52 148q0 100 -71 170.5t-170.5 70.5zM584 41h-144v35h144v-35zM584 112
h-144v35h144v-35zM664 289q-36 -45 -66 -94h-68v140l105 106q6 5 6 12.5t-5.5 12.5t-13 5t-12.5 -5l-98 -98l-98 98q-6 5 -13 5t-12.5 -5t-5.5 -12.5t5 -12.5l106 -106v-140h-68q-30 49 -66 94q-41 53 -41 119q0 80 56.5 136.5t136.5 56.5t136.5 -56.5t56.5 -136.5
q0 -66 -41 -119zM512 690q14 0 23.5 10t9.5 23v77q0 13 -9.5 22.5t-23.5 9.5t-23.5 -9.5t-9.5 -22.5v-77q0 -13 9.5 -23t23.5 -10zM297 643q10 -14 26 -14q11 0 20 6q11 8 13 21.5t-6 24.5l-45 62q-8 11 -21.5 13t-24.5 -6t-13 -21.5t6 -24.5zM217 533l-73 23
q-13 5 -25 -1.5t-16 -19.5t2 -25t19 -16l73 -24q5 -1 10 -1q24 0 31 22q4 13 -2 25.5t-19 16.5zM900 311l-73 23q-13 5 -25 -1.5t-16 -19.5t2 -25t19 -16l73 -24q5 -1 10 -1q23 0 31 23q4 12 -2 24.5t-19 16.5zM197 334l-73 -23q-13 -4 -19 -16.5t-2 -24.5q7 -23 31 -23
q5 0 10 1l73 24q13 4 19 16t2 25t-16 19.5t-25 1.5zM817 469q5 0 10 1l73 24q13 4 19 16t2 25t-16.5 19t-24.5 2l-73 -23q-13 -4 -19 -16.5t-2 -25.5q7 -22 31 -22zM719 743l-45 -62q-8 -11 -6 -24.5t13 -21.5q9 -6 20 -6q16 0 26 14l45 61q8 11 6 24.5t-13 21.5t-24.5 6
t-21.5 -13z" />
    <glyph glyph-name="uniE641" unicode="&#xe641;" 
d="M519.5 684q-85.5 0 -146 -60.5t-60.5 -146t60.5 -146t146 -60.5t146.5 60.5t61 146t-61 146t-146.5 60.5zM520 872q-99 0 -189 -38.5t-155 -103.5t-103.5 -155t-38.5 -188.5t38.5 -188.5t103.5 -155.5t155 -104t188.5 -38.5t188.5 38.5t155.5 104t104 155.5t38.5 188.5
t-38.5 188.5t-104 155t-155.5 103.5t-188 38.5zM778 68l-45 79q-20 37 -56 58.5t-78 21.5h-162q-43 0 -80 -23t-56 -62l-40 -73q-71 57 -111 140t-40 177q0 111 54.5 205.5t149 149.5t206 55t206 -55t149.5 -149.5t55 -205.5q0 -94 -40.5 -177t-111.5 -141z" />
    <glyph glyph-name="uniE642" unicode="&#xe642;" 
d="M766 -48q-4 0 -7 1q-66 4 -140 42v1l-54 30q-46 25 -115.5 84t-100.5 89.5t-51 51.5l-11 12q-78 84 -134 176q-84 137 -78 233q5 72 58 115q57 45 107 39q53 -7 104 -76q2 -3 7 -9q47 -64 55 -95q14 -54 -34 -103l-1 -1q-9 -9 -10 -28q0 -28 21 -65q29 -52 95 -114
q89 -85 147 -93q25 -3 36 6v1v-1v1q42 48 106 31q45 -12 111 -61q51 -39 64 -80q15 -45 -14 -96q-4 -6 -11.5 -8t-14 1.5t-8.5 11t1 14.5q21 36 12 66q-10 29 -52 61q-60 45 -97 55q-42 11 -69 -20q-15 -18 -47 -20q-76 -4 -190 103q-130 125 -127 210q2 34 22 53
q17 17 23.5 32t0.5 34t-16 35.5t-34 47.5l-6 9q-42 56 -79 61q-34 4 -78 -31q-41 -33 -45 -88q-5 -85 73 -212q60 -98 140 -181l2 -2q25 -26 57 -57t95 -84t104 -75l54 -31q67 -34 124 -38q16 -1 33 2q6 1 20 4q58 11 101 12q7 1 13 -4.5t6 -13t-5 -13.5t-13 -6
q-40 -2 -95 -12q-14 -3 -20 -4q-17 -3 -35 -3zM717 610h-142q-7 0 -12.5 -5.5t-5.5 -13t5.5 -13t12.5 -5.5h97l-128 -127q-6 -6 -6 -13.5t5.5 -13t13.5 -5.5t13 5l128 127v-98q0 -8 5.5 -13.5t13.5 -5.5t13.5 5.5t5.5 13.5v144q0 7 -5.5 12.5t-13.5 5.5z" />
    <glyph glyph-name="uniE643" unicode="&#xe643;" 
d="M1008 561l-160 -144q-14 -13 -32 -13q-20 0 -34 14t-14 34q0 21 16 35l67 60h-291h-96h-112h-304q-20 0 -34 14t-14 34t14 34t34 14h125h243h208h227l-67 61q-16 15 -16 35t14 34t34 14q18 0 32 -13l160 -144q16 -14 16 -35q0 -20 -16 -34zM16 215l160 144q14 13 32 13
q20 0 34 -14t14 -34q0 -21 -16 -35l-67 -60h227h208h243h125q20 0 34 -14t14 -34t-14 -34t-34 -14h-304h-112h-96h-291l67 -61q16 -15 16 -35t-14 -34t-34 -14q-18 0 -32 13l-160 142q-16 15 -16 35q0 22 16 36z" />
    <glyph glyph-name="uniE644" unicode="&#xe644;" 
d="M359 431q-64 0 -109 51t-45 123.5t45 123.5t109 51t109 -51t45 -123.5t-45 -123.5t-109 -51zM359 740q-47 0 -80.5 -39.5t-33.5 -95t33.5 -95t80.5 -39.5t80.5 39.5t33.5 95t-33.5 95t-80.5 39.5zM614 -10h-517q-8 0 -13.5 5.5t-6.5 13.5l-11 167q-3 41 25 82.5t69 56.5
q94 34 195.5 34t195.5 -34q41 -15 69 -56.5t25 -82.5l-11 -167q-1 -8 -6.5 -13.5t-13.5 -5.5zM116 30h479l10 148q2 27 -18 57.5t-50 41.5q-87 32 -181.5 32t-182.5 -32q-29 -11 -49 -41.5t-18 -57.5zM614 -10h-517q-8 0 -13.5 5.5t-6.5 13.5l-11 167q-3 41 25 82.5t69 56.5
q94 34 195.5 34t195.5 -34q41 -15 69 -56.5t25 -82.5l-11 -167q-1 -8 -6.5 -13.5t-13.5 -5.5zM116 30h479l10 148q2 27 -18 57.5t-50 41.5q-87 32 -181.5 32t-182.5 -32q-29 -11 -49 -41.5t-18 -57.5zM927 -10h-206q-9 0 -14.5 6t-5.5 14.5t5.5 14t14.5 5.5h187l8 126
q2 22 -15 47.5t-42 34.5q-71 26 -147 27q-8 0 -14 6t-5.5 14.5t6 14t14.5 5.5q83 -1 160 -29q37 -13 61.5 -49.5t21.5 -73.5l-9 -144q-1 -8 -7 -13.5t-13 -5.5zM768 388q-51 0 -88 41.5t-37 99.5t37 99.5t88.5 41.5t88 -41.5t36.5 -99.5t-36.5 -99.5t-88.5 -41.5zM768 629
q-35 0 -59.5 -29t-24.5 -71t24.5 -71.5t59.5 -29.5t60 29.5t25 71.5t-25 71t-60 29z" />
    <glyph glyph-name="uniE645" unicode="&#xe645;" 
d="M928 -128h-672v1024h320v-576l96 128h64l96 -128v576h96q13 0 22.5 -9.5t9.5 -22.5v-960q0 -13 -9.5 -22.5t-22.5 -9.5zM64 -96v960q0 13 9.5 22.5t22.5 9.5h96v-1024h-96q-13 0 -22.5 9.5t-9.5 22.5zM64 -96z" />
    <glyph glyph-name="uniE646" unicode="&#xe646;" horiz-adv-x="1027" 
d="M897.5 -63q-26.5 0 -45.5 19t-19 45v353q0 34 -28.5 53t-60.5 6l-156 -67q-75 -32 -150 1l-399 170q-18 8 -28.5 24t-10.5 35t10.5 35t28.5 24l399 170q75 33 151 0l399 -170q24 -11 34 -35.5t-0.5 -49t-35 -34t-49.5 0.5l-399 171q-25 10 -50 0l-261 -112l261 -112
q25 -10 50 0l156 66q45 20 93 15.5t88.5 -31.5t63 -69.5t22.5 -90.5v-353q0 -26 -18.5 -45t-45 -19zM511 0q-122 0 -225 67q-29 19 -29 54v334q0 26 19 45t45.5 19t45 -19t18.5 -45v-297q61 -31 128 -30.5t127 32.5v302q0 27 18.5 45.5t45 18.5t45.5 -18.5t19 -45.5v-339
q0 -36 -31 -54q-102 -69 -226 -69zM896 64v484v-484z" />
    <glyph glyph-name="uniE647" unicode="&#xe647;" 
d="M512 -127l-438 438h292v584h292v-584h292z" />
    <glyph glyph-name="uniE648" unicode="&#xe648;" 
d="M312 334h103v-103h-103v103zM978 475l-433 366q-14 13 -33.5 13t-34.5 -13l-433 -366q-17 -14 -18.5 -36t12.5 -39t36 -18.5t39 12.5l7 6v-422q0 -14 9.5 -23.5t23.5 -9.5h716q14 0 24 9.5t10 23.5v422l6 -6q15 -13 35 -13q24 0 40 19q15 17 13 39t-19 36zM836 11h-125
v323h-183v-323h-342v445l325 275l325 -275v-445z" />
    <glyph glyph-name="uniE649" unicode="&#xe649;" 
d="M512 -96q-15 16 -39 44.5t-86 108.5t-109.5 151.5t-86.5 155.5t-39 140q0 98 48 181t131 131t181 48t181 -48t131 -131t48 -181q0 -56 -39 -140t-86.5 -155.5t-109.5 -151.5t-86.5 -108.5t-38.5 -44.5zM512 744q-99 0 -169.5 -70.5t-70.5 -169.5t70.5 -169.5t169.5 -70.5
t169.5 70.5t70.5 169.5t-70.5 169.5t-169.5 70.5zM512 384q-50 0 -85 35t-35 85t35 85t85 35t85 -35t35 -85t-35 -85t-85 -35z" />
    <glyph glyph-name="uniE64A" unicode="&#xe64a;" 
d="M869 717h-720q-35 0 -59 -24.5t-24 -59.5v-498q0 -35 24 -59.5t59 -24.5h720q35 0 59 24.5t24 59.5v498q0 35 -24 59.5t-59 24.5zM141 107l-20 20l229 229l20 -20zM876 107l-228 229l20 20l229 -229zM537 292v-19h-56v19l-360 334l35 35l353 -327l353 327l35 -35z" />
    <glyph glyph-name="uniE64B" unicode="&#xe64b;" 
d="M1014 390.5q0 102.5 -40 196.5t-107.5 161.5t-161.5 107.5t-196.5 40t-196.5 -40t-161.5 -107.5t-107.5 -161.5t-40 -196.5t40 -196.5t107.5 -161.5t161.5 -107.5t196.5 -40t196 40t161.5 107.5t108 161.5t40 196.5zM480 206l-273 273q-12 12 -12 29t12 29t29 12t29 -12
l243 -244l244 244q12 12 29 12t29 -12t12 -29t-12 -29l-273 -273q-12 -12 -29 -12t-28 12z" />
    <glyph glyph-name="uniE64C" unicode="&#xe64c;" 
d="M889 537l-359 274q-7 7 -18 7t-18 -7l-359 -274q-7 -8 -7 -18.5t7 -18.5h754q7 8 7 18.5t-7 18.5zM512 570q-24 0 -41.5 17t-17.5 41t17.5 41t41.5 17t41.5 -17t17.5 -41t-17.5 -41t-41.5 -17zM258 446h53q8 0 14 -6t6 -15v-262q0 -8 -6 -14t-14 -6h-53q-8 0 -14 6t-6 14
v262q0 9 6 15t14 6zM485 446h54q8 0 14 -6t6 -15v-261q0 -9 -6 -15t-14 -6h-54q-8 0 -14 6t-6 15v261q0 9 6 15t14 6zM713 446h53q8 0 14 -6t6 -15v-262q0 -8 -6 -14t-14 -6h-53q-8 0 -14 6t-6 14v262q0 9 6 15t14 6zM122 -7h780q10 0 10 -10v-26q0 -10 -10 -10h-780
q-10 0 -10 10v26q0 10 10 10zM165 97h694q10 0 10 -10v-26q0 -10 -10 -10h-694q-10 0 -10 10v26q0 10 10 10z" />
    <glyph glyph-name="uniE64D" unicode="&#xe64d;" 
d="M959 217h-447v111h-279v447h391v-112h335l-112 -223zM121 -63q-23 0 -39.5 16.5t-16.5 39.5v782q0 23 16.5 39.5t39.5 16.5t39.5 -16.5t16.5 -39.5v-782q0 -23 -16.5 -39.5t-39.5 -16.5zM121 -63z" />
    <glyph glyph-name="uniE64E" unicode="&#xe64e;" 
d="M941 590q-2 -9 -3 -10q-12 -48 -60 -60q-23 -6 -66 -15q-6 -1 -6 -7q1 -15 0.5 -107.5t0.5 -107.5q0 -50 -40 -82q-28 -23 -76 -37q-43 -13 -101 -18q-57 -5 -117 -2q-90 3 -149 23q-46 15 -72 38q-35 31 -35 76v217q0 6 -5 7q-33 7 -66 15q-25 6 -42 24t-20 44v1l-1 1
v16q1 2 1 3q4 25 20 43t40 24q40 9 309 72q8 2 25.5 5.5t25.5 5.5h15q2 0 6 -1t6 -1q38 -9 159 -37t187 -43q48 -11 61 -60q1 -2 1.5 -5.5t1.5 -5.5v-16zM753 491l-1 -1h-3q-31 -7 -101.5 -23.5t-108.5 -24.5q-26 -7 -44 -3q-139 32 -209 48q-3 1 -16 4v-6v-201
q0 -18 14 -31q7 -6 11 -9q23 -16 61 -28q49 -15 113 -19q90 -5 164 10q51 11 86 31q18 10 28 22q6 9 6 20v205v6zM511 491q1 0 3.5 0.5t4.5 0.5q44 10 133 30.5t133 30.5q13 3 39.5 9.5t40.5 9.5q17 4 21 20q3 12 -3 21t-20 13q-58 13 -172.5 39.5t-169.5 39.5q-9 2 -18 0
l-141 -33q-134 -31 -202 -47q-23 -5 -23 -27q0 -21 23 -26q108 -24 323 -75zM881 9q-5 1 -9 2q-19 6 -29.5 22t-8.5 36q5 39 22 72q7 12 16 22q15 15 30 -1q10 -10 17 -23q16 -30 21 -67q0 -1 1 -3v-13q-1 -2 -1 -3q-7 -32 -38 -42q-1 0 -4 -1l-4 -1h-13zM861 344v120
q0 10 6.5 18t16.5 9q12 1 20.5 -6.5t9.5 -18.5v-3v-239q0 -14 -11 -22.5t-25 -3.5q-17 6 -17 26v120z" />
    <glyph glyph-name="uniE64F" unicode="&#xe64f;" 
d="M512 128l-512 512h1024z" />
    <glyph glyph-name="uniE650" unicode="&#xe650;" horiz-adv-x="1449" 
d="M501 868v-444h-291q363 -348 532 -509q329 339 492 510h-289v443h-444zM501 868z" />
    <glyph glyph-name="uniE651" unicode="&#xe651;" horiz-adv-x="1025" 
d="M992 565v-7v7zM815 747l-194 30l-44 -131h-130l-44 131l-194 -30q-48 -8 -77 -17.5t-54 -29.5t-35.5 -54.5t-10.5 -87.5v-414q0 -4 0.5 -10t4 -24t9.5 -34.5t19 -37t30.5 -35t46.5 -24t65 -9.5h610q29 0 53 6t40.5 16t30.5 23t22 27.5t14 29t9 27.5t4.5 23t1.5 16v6v415
q0 41 -10 72.5t-25 50t-40 32t-47 20t-55 13.5zM817 57h-610q-25 0 -43 9.5t-26 21t-13 26.5t-5.5 21t-0.5 9v349q0 3 0.5 7.5t4 15.5t10 19.5t20 15.5t31.5 7h654q20 0 33.5 -6.5t19.5 -16t9.5 -19t3.5 -16.5v-7v-349q2 -48 -31 -72q-22 -15 -57 -15zM207 471h240v-327
h-240v327zM534 689q22 73 22 88q0 21 -22 21h-44q-22 0 -22 -21q0 -7 5.5 -28.5t11.5 -40.5l5 -19h44zM774 471h-218q-17 0 -30.5 -13t-13.5 -30t13.5 -30.5t30.5 -13.5h218q16 0 29.5 13.5t13.5 30.5t-13.5 30t-29.5 13zM665 319h-109q-17 0 -30.5 -13.5t-13.5 -30.5
t13.5 -30.5t30.5 -13.5h109q16 0 29.5 13.5t13.5 30.5t-13.5 30.5t-29.5 13.5z" />
    <glyph glyph-name="uniE652" unicode="&#xe652;" 
d="M555 148v90q171 24 171 253v343h-85v-343q0 -87 -30 -129t-99 -42q-72 0 -100.5 40.5t-28.5 130.5v343h-85v-343q0 -108 43 -174t128 -79v-90h-257v-214h600v214h-257zM726 20h-428v43h428v-43z" />
    <glyph glyph-name="uniE653" unicode="&#xe653;" 
d="M901 182h-747q-31 0 -52.5 22t-21.5 54v456q0 32 21.5 54t52.5 22h747q31 0 53 -22t22 -54v-456q0 -32 -22 -54t-53 -22zM901 638q0 32 -22 54t-53 22h-597q-31 0 -53 -22t-22 -54v-304q0 -32 22 -54t53 -22h597q31 0 53 22t22 54v304zM378 106h299v-76h149v-76h-597v76
h149v76z" />
    <glyph glyph-name="uniE654" unicode="&#xe654;" horiz-adv-x="1536" 
d="M1440 896h-1344q-40 0 -68 -27.5t-28 -65.5v-838q0 -38 28 -65.5t68 -27.5h1344q40 0 68 27.5t28 65.5v838q0 38 -28 65.5t-68 27.5zM1304 337h-584q-20 0 -34 14t-14 33t14 33t34 14h584q20 0 34 -14t14 -33t-14 -33t-34 -14zM1352 198q0 -19 -14 -33t-34 -14h-584
q-20 0 -34 14t-14 33t14 32.5t34 13.5h584q20 0 34 -13.5t14 -32.5zM1304 524h-584q-20 0 -34 13.5t-14 32.5t14 33t34 14h584q20 0 34 -14t14 -33t-14 -32.5t-34 -13.5zM386.5 440q78.5 0 134 -72.5t55.5 -174.5q0 -32 -28 -56t-70.5 -35t-91.5 -11t-91 11t-70 35t-28 56
q0 102 55.5 174.5t134 72.5zM268 597.5q0 46.5 34 79.5t82 33t82 -33t34 -79.5t-34 -79.5t-82 -33t-82 33t-34 79.5z" />
    <glyph glyph-name="uniE655" unicode="&#xe655;" horiz-adv-x="1526" 
d="M643 149q-29 12 -105.5 42.5t-120.5 49t-85 37.5v-216q6 -7 18 -19.5t54 -45t88.5 -57t121.5 -45t155 -20.5q74 0 144.5 20.5t115 45t84.5 56.5t51.5 45t17.5 20v248q-58 -30 -159.5 -85.5t-141.5 -75.5q-32 -20 -74.5 -25t-83 2t-80.5 23zM1455 632q-80 33 -307 123
t-293 118q-28 14 -50.5 19t-49.5 0.5t-45 -11t-58 -22.5q-69 -27 -276 -105.5t-287 -109.5q-61 -23 -79.5 -44t0.5 -42.5t77 -50.5q48 -23 116.5 -52.5t144.5 -59.5t132 -52t120.5 -46.5t69.5 -26.5q53 -21 97.5 -20t98.5 26q36 17 502 212v-203l-76 -71l112 -114l110 118
l-53 54v257q6 4 21.5 11.5t24 12.5t15.5 14t3 17.5t-21 21t-49 26.5z" />
    <glyph glyph-name="uniE656" unicode="&#xe656;" 
d="M512 896q-104 0 -199 -40.5t-163.5 -109t-109 -163.5t-40.5 -199t40.5 -199t109 -163.5t163.5 -109t199 -40.5t199 40.5t163.5 109t109 163.5t40.5 199t-40.5 199t-109 163.5t-163.5 109t-199 40.5zM702.5 310q-5.5 -6 -13.5 -6t-14 6l-144 145v-344q0 -8 -5.5 -14
t-13.5 -6t-13.5 6t-5.5 14v343l-126 -126q-6 -5 -14 -5t-13.5 5.5t-5.5 13.5t6 14l157 158q3 2 7 4t8 2h1l1 -1q8 0 14 -6l175 -176q5 -5 5 -13t-5.5 -14zM726 559h-428q-8 0 -14 5.5t-6 13.5t6 13.5t14 5.5h428q8 0 14 -5.5t6 -13.5t-6 -13.5t-14 -5.5z" />
    <glyph glyph-name="uniE657" unicode="&#xe657;" 
d="M512 -128q-104 0 -199 40.5t-163.5 109t-109 163.5t-40.5 199t40.5 199t109 163.5t163.5 109t199 40.5t199 -40.5t163.5 -109t109 -163.5t40.5 -199t-40.5 -199t-109 -163.5t-163.5 -109t-199 -40.5zM512 858q-96 0 -184 -38t-151 -101t-101 -151t-38 -184t38 -184
t101 -151t151 -101t184 -38t184 38t151 101t101 151t38 184t-38 184t-101 151t-151 101t-184 38zM512 362zM695 680q-6 0 -10 3q-8 4 -10 12t2 16l12 20q4 7 12 9.5t15.5 -2t9.5 -12.5t-2 -15l-12 -20q-6 -11 -17 -11v0zM695 680zM317 27q-5 0 -10 2q-7 5 -9 13t2 15l12 20
q4 8 12 10t15 -2t9.5 -12t-1.5 -16l-12 -20q-6 -10 -18 -10v0zM317 27zM849 169q-5 0 -10 3l-20 12q-8 4 -10 12t2 15t12 9.5t16 -1.5l20 -12q7 -4 9.5 -12t-2.5 -16q-5 -10 -17 -10v0zM849 169zM195 547q-5 0 -9 2l-21 12q-7 4 -9.5 12t2 15.5t12.5 9.5t15 -2l20 -12
q8 -4 10 -12t-2 -15q-6 -10 -18 -10v0zM195 547zM329 680q-11 0 -17 11l-12 20q-4 7 -2 15t9.5 12.5t15.5 2t12 -9.5l12 -20q4 -8 2 -16t-10 -12q-4 -3 -10 -3v0zM329 680zM707 27q-12 0 -18 10l-12 20q-4 7 -1.5 15.5t9.5 12.5t15 2t12 -9l12 -21q4 -7 2 -15t-9 -12
q-5 -3 -10 -3v0zM707 27zM175 169q-12 0 -17 10q-5 8 -2.5 16t9.5 12l21 12q7 4 15 1.5t12 -9.5t2 -15t-10 -12l-20 -12q-5 -3 -10 -3v0zM175 169zM829 547q-12 0 -18 10q-4 7 -2 15t10 12l20 12q7 4 15 2t12.5 -9.5t2 -15.5t-9.5 -12l-20 -12q-5 -2 -10 -2v0zM829 547z
M146 364h-23q-8 0 -14 6t-6 14t6 14t14 6h24q8 0 14 -6t6 -14t-6 -14t-15 -6v0zM146 364zM878 364q-9 0 -14.5 6t-6 14t5.5 14t14 6h24q9 0 14.5 -6t5.5 -14t-5.5 -14t-14.5 -6h-23v0zM878 364zM512 -25q-9 0 -14.5 6t-5.5 14v24q0 8 6 14t14 6q9 0 14.5 -6t5.5 -15v-23
q0 -9 -6 -14.5t-14 -5.5v0zM512 -25zM512 730q-8 0 -14 5.5t-6 14.5v23q0 8 6 14t14 6t14 -6t6 -14v-23q0 -9 -6 -14.5t-14 -5.5v0zM512 730zM323 241q-11 0 -17 10q-3 7 -1 14.5t9 11.5l179 96v291q0 8 5.5 14t13.5 6t13.5 -6t5.5 -14v-302q0 -12 -10 -17l-188 -102
q-5 -2 -10 -2z" />
    <glyph glyph-name="uniE658" unicode="&#xe658;" horiz-adv-x="1025" 
d="M41 805q22 6 41.5 -5.5t25.5 -34.5l213 -822q6 -22 -5.5 -42.5t-33.5 -26.5t-41.5 5.5t-25.5 34.5l-213 822q-6 23 5.5 43t33.5 26zM41 805zM158 740q5 9 13 21t27.5 33t41 38t54.5 30.5t67.5 16.5t79.5 -9t92 -43q9 -5 25 -16q53 -34 78.5 -50t68.5 -41t66 -34t57 -20
t54.5 -7.5t45.5 11.5t44.5 28.5t36.5 52.5q-2 -16 -7.5 -42t-23 -84.5t-36.5 -92.5q-17 -30 -47.5 -59t-76 -53t-99 -30.5t-116.5 7.5q-112 31 -193 -12.5t-116 -149.5q-125 466 -136 505zM158 740z" />
    <glyph glyph-name="uniE659" unicode="&#xe659;" 
d="M717 423h295q4 0 7.5 -3.5t3.5 -7.5v-23q0 -5 -3.5 -8t-7.5 -3h-295q-5 0 -8.5 3t-3.5 8v23q0 4 3.5 7.5t8.5 3.5zM717 173h295q4 0 7.5 -3t3.5 -8v-23q0 -4 -3.5 -7.5t-7.5 -3.5h-295q-5 0 -8.5 3.5t-3.5 7.5v23q0 5 3.5 8t8.5 3zM717 673h295q4 0 7.5 -3t3.5 -8v-23
q0 -4 -3.5 -7.5t-7.5 -3.5h-295q-5 0 -8.5 3.5t-3.5 7.5v23q0 5 3.5 8t8.5 3zM509 721q-45 0 -85.5 -21t-68.5 -58q-28 37 -68 58t-86 21q-81 0 -139 -62t-58 -150q0 -32 10 -64t19.5 -49t27.5 -44q21 -32 56.5 -71t67.5 -69t69 -61t51.5 -42.5t24.5 -18.5q11 -9 25 -9t26 9
q9 7 24 18.5t52 42.5t69 61t67.5 69t56.5 71q17 27 27 44t20 49t10 64q0 88 -58 150t-140 62v0zM614 379q-32 -49 -96.5 -111t-113.5 -101.5t-49 -38.5q-7 6 -20 16t-49.5 40.5t-67.5 59.5t-66 66.5t-55 68.5q-16 25 -25 40.5t-16.5 40.5t-7.5 49q0 68 45 116.5t108 48.5
q47 0 85 -27t56 -71v0q3 -10 13 -10t14 10q18 44 56 71t84 27q64 0 109 -48.5t45 -116.5q0 -24 -7.5 -49t-16.5 -40.5t-25 -40.5v0z" />
    <glyph glyph-name="uniE65A" unicode="&#xe65a;" 
d="M781 422l-315 -313q0 46 -34 79q-31 31 -70 39l309 308l110 -109q1 -1 1 -2t-1 -2zM171 160q33 -17 57.5 -41t42.5 -59h-100v100zM412 60h-102q-21 50 -56 85q-35 34 -83 54v104q22 18 51.5 16.5t50.5 -22.5q22 -22 28 -49.5t-7 -37.5q-5 -5 -5 -12.5t5 -12.5t12.5 -5
t12.5 5q11 12 38.5 6t49.5 -28q21 -21 22.5 -50.5t-17.5 -52.5zM535 667q2 1 4 0l107 -107l-310 -308q-7 39 -38 70q-32 31 -77 33zM606 699l208 -206q3 -3 3 -7.5t-3 -7.5l-18 -17l-222 221l17 17q7 8 15 0zM852 485q0 19 -13 33l-208 206q-13 14 -32.5 14t-32.5 -14
l-22 -22q-4 1 -7 1q-16 0 -27 -11l-375 -373v-294h296l375 372q11 11 11 27v7l22 21q13 14 13 33z" />
    <glyph glyph-name="uniE65B" unicode="&#xe65b;" 
d="M899 598l-77 23q-11 61 -56 98t-108 37q-60 0 -105.5 -35.5t-58.5 -92.5l-116 -34q-4 -2 -10 -2q-9 0 -13 2l-203 58q-4 3 -13 3q-17 0 -29 -12.5t-12 -29.5v-490q0 -14 8 -25t21 -14l228 -71q4 -2 12.5 -2t10.5 2l268 77q4 2 10 2q8 0 13 -2l203 -62q4 -2 12 -2
q18 0 30 12t12 29v492q2 14 -6 25t-21 14zM368 549v-497l-229 71v490l206 -60q4 -1 11 -2t12 -2v0zM658 715q53 0 89 -34.5t36 -86.5q0 -41 -31 -85q-26 -35 -94 -137q-12 18 -45.5 67.5t-47.5 69.5q-31 44 -31 85q0 52 35.5 86.5t88.5 34.5zM886 65l-203 62h-4v4v125
q0 9 -5.5 15t-15 6t-15.5 -6t-6 -15v-125v-4h-4l-224 -62v484q0 2 -1 5t-1 5l87 25q3 -43 38 -98q13 -18 46 -66.5t47 -68.5q12 -18 35 -18t36 18q56 86 93 135q35 51 37 94l63 -19v-496h-3zM658 528q27 0 44.5 18t17.5 44.5t-17.5 44t-44 17.5t-44.5 -17.5t-18 -44
t18 -44.5t44 -18zM658 611q10 0 15.5 -6t5.5 -15t-5.5 -15t-15 -6t-15.5 6t-6 15t6 15t15 6zM658 611z" />
    <glyph glyph-name="uniE65C" unicode="&#xe65c;" 
d="M363 666q0 8 4 14t10 6h269q6 0 9.5 -6t3.5 -14v-774q0 -8 -3.5 -14t-9.5 -6h-269q-6 0 -10 6t-4 14v774zM363 666zM162 461q-8 0 -10.5 4.5t3.5 11.5l344 413q5 6 12.5 6t12.5 -6l344 -413q6 -7 3.5 -11.5t-10.5 -4.5h-699zM162 461z" />
    <glyph glyph-name="uniE65D" unicode="&#xe65d;" 
d="M530.5 794q-105.5 0 -180 -74.5t-74.5 -179.5q0 -50 21.5 -108.5t63.5 -123t78.5 -113t91.5 -114.5q38 49 51 65.5t48 63t49.5 70t40 65t36 69.5t20 62.5t9.5 63.5q0 105 -74.5 179.5t-180 74.5zM530.5 372q-69.5 0 -119 49t-49.5 119t49.5 119t119 49t119 -49t49.5 -119
t-49.5 -119t-119 -49zM531 540zM434 540q0 40 28.5 68t68 28t68 -28t28.5 -68t-28.5 -68t-68 -28t-68 28t-28.5 68zM532 -30q-85 0 -158 16t-122 51.5t-49 82.5q0 41 39.5 74.5t110.5 53.5q13 3 24 -3.5t14.5 -19t-2.5 -23.5t-19 -15q-50 -14 -77.5 -33t-27.5 -34
q0 -30 76.5 -59t190.5 -29t190.5 29t76.5 59q0 16 -30 36t-82 33q-12 4 -18.5 15t-3.5 23.5t14.5 19t23.5 3.5q75 -20 116.5 -54t41.5 -76q0 -47 -49 -82.5t-122 -51.5t-158 -16z" />
    <glyph glyph-name="uniE65E" unicode="&#xe65e;" 
d="M846 478q-17 100 -99 165q-66 51 -159 63q-2 0 -42 4h-42q-27 -3 -33 -4q-113 -14 -192 -92t-98 -180l-7 -51l-1 -6v-46q3 -31 4 -34q12 -92 70.5 -159t147.5 -92q41 -11 82 -13q1 0 6 -2h54q5 1 13.5 1.5t15.5 1.5t13 1q58 7 101 25q4 2 4 5v75q-29 -11 -31 -12
q-65 -24 -140 -23q-54 1 -95 15q-91 31 -130 115q-30 67 -20 157q7 63 38 114q77 125 215 130q56 2 101 -14q68 -22 106 -84q35 -58 31 -142q-2 -48 -15 -81q-13 -35 -33 -49q-11 -8 -25 -8q-22 -1 -27 23q-4 21 -4 36q3 54 7 116q1 11 11 112h-90q-1 -7 -2.5 -22t-2.5 -20
l-3 6q-15 39 -61 43q-76 7 -127 -61q-37 -48 -44 -117q-5 -56 6 -96q16 -58 63 -82q25 -15 64 -11.5t62 28.5q16 18 25 41q1 1 4 9q1 0 1 -1h1l2 -10q5 -27 24.5 -45.5t46.5 -21.5q83 -9 143 51q54 55 64 143q0 3 0.5 6.5t1 7.5t0.5 7v41q-4 33 -5 37zM556 313
q-11 -29 -29 -43q-23 -19 -49 -11.5t-36 34.5q-11 32 -5 80q6 49 31 82q20 27 51 26q30 -2 45 -32q7 -17 7 -48q-1 -53 -15 -88z" />
    <glyph glyph-name="uniE65F" unicode="&#xe65f;" 
d="M440 -127q-19 0 -26 18l-323 855q-4 11 1 21.5t16 15t21.5 -0.5t14.5 -16l323 -855q4 -11 -1 -21.5t-16 -14.5q-5 -2 -10 -2zM317 213q-8 0 -15 5q-10 6 -12.5 17t3.5 21q58 96 102 121q30 17 61.5 24t68 4t59.5 -7.5t65 -14.5q105 -26 154 -21q13 1 43 11q26 9 37 17
q5 108 8 209q3 128 2 193q-18 -13 -40 -25q-66 -36 -131 -48q-90 -15 -137 28q-33 30 -87 40.5t-104 3t-80 -26.5q-22 -14 -50 -24t-50 -13.5t-45.5 -5.5t-32.5 -1.5t-15 0.5q-12 1 -19.5 10t-7 20.5t9.5 19t21 7.5q11 -1 29 -1t60 8.5t70 26.5q65 42 166 39q110 -3 173 -62
q27 -24 89 -13q56 10 114 42q51 28 60 44q12 24 35 17q18 -4 23 -26q2 -8 3 -20q2 -19 2 -55q1 -59 -1 -161q-4 -117 -9 -235q-2 -34 -65 -58q-41 -15 -66 -17q-59 -6 -172 22q-38 9 -58 13t-51 7t-56 -2t-48 -18q-15 -9 -38.5 -38.5t-43.5 -62.5q-8 -14 -24 -14z" />
    <glyph glyph-name="uniE660" unicode="&#xe660;" 
d="M832 768h-640q-27 0 -45.5 -18.5t-18.5 -45.5v-640q0 -27 18.5 -45.5t45.5 -18.5h640q27 0 45.5 18.5t18.5 45.5v640q0 27 -18.5 45.5t-45.5 18.5zM192 117v534q0 22 15.5 37.5t37.5 15.5h35v-640h-35q-22 0 -37.5 15.5t-15.5 37.5zM832 117q0 -22 -15.5 -37.5
t-37.5 -15.5h-425v640h425q22 0 37.5 -15.5t15.5 -37.5v-534zM688 320q-57 17 -65 27v36q17 15 17 40q12 2 12 22q2 10 -6 21q10 49 -7 64q-2 3 -5.5 7.5t-17.5 12t-30 8.5q-17 -1 -30.5 -8t-18.5 -13l-4 -7q-8 -7 -10 -23t0 -29l2 -12q-3 -5 -4.5 -10t-1.5 -8v-3
q0 -9 3 -14.5t6 -6.5l3 -1q0 -11 4 -21t9 -15l4 -4v-36q-4 -4 -20 -11t-30 -12l-15 -4q-19 -2 -34 -11.5t-22 -22t-11 -24.5t-4 -20l-1 -8q0 -12 3 -18t6 -6h4h324q1 -1 3 0t5.5 6.5t3.5 17.5l-5 29q-17 52 -67 57z" />
    <glyph glyph-name="uniE661" unicode="&#xe661;" 
d="M971 -23l-154 264q-7 11 -19 11h-88q-9 0 -15 -6.5t-6 -15.5t6.5 -15t14.5 -6h77l128 -220h-783l128 220h77q9 0 15 6.5t6 14.5q0 10 -6.5 16t-14.5 6h-87q-12 0 -20 -11l-155 -264q-7 -11 0 -21.5t19 -10.5h860q12 0 19 10q4 12 -2 22zM512 448q53 0 90.5 37.5
t37.5 90.5t-37.5 90.5t-90.5 37.5t-90.5 -37.5t-37.5 -90.5t37.5 -90.5t90.5 -37.5zM512 661q35 0 60 -25t25 -60t-25 -60t-60 -25t-60 25t-25 60t25 60t60 25zM284 418l209 -303q5 -8 17 -8q8 0 17 8l211 303v2q49 72 49 158q0 115 -81 196t-196 81t-195 -81.5t-80 -197.5
q0 -86 49 -158zM512 811q98 0 166.5 -68.5t68.5 -166.5q0 -89 -60 -156h2l-179 -256l-175 256l2 2q-60 63 -60 154q0 98 68.5 166.5t166.5 68.5z" />
    <glyph glyph-name="uniE662" unicode="&#xe662;" horiz-adv-x="1035" 
d="M753 -128q-80 0 -211 81q-125 77 -244 193l-24 24q-116 119 -193 244q-81 131 -81 211q0 78 72 175q14 18 30 36t45 39t52 21q30 0 72 -44q31 -32 67 -83q34 -49 57 -92q27 -51 27 -76q0 -33 -34 -56q-15 -10 -49 -25q-30 -13 -37 -19q6 -24 42 -77q43 -63 93 -115
q52 -50 115 -93q53 -36 77 -42q6 7 19 37q15 34 25 49q23 34 56 34q25 0 76 -27q43 -23 92 -57q51 -36 83 -67q44 -42 44 -72q0 -23 -21 -52t-39 -45t-36 -30q-97 -72 -175 -72zM341 189q114 -111 232 -185q117 -72 180 -72q57 0 135 59q34 24 56 50q16 18 19 29
q-5 11 -32 36t-74 58q-43 30 -81 50q-33 17 -47 19q-4 -2 -9.5 -11.5t-16.5 -34.5q-13 -31 -21 -43q-20 -31 -49 -31h-1q-38 1 -114 53q-68 46 -123 100l-1 1q-54 55 -100 123q-52 76 -53 114q-1 29 30 50q13 8 44 21q25 11 34.5 16.5t11.5 9.5q-2 14 -19 47q-20 38 -50 81
q-33 47 -58 74t-36 32q-11 -3 -29 -19q-26 -22 -50 -56q-59 -78 -59 -135q0 -63 72 -180q74 -118 185 -232zM341 189zM700 406q-8 0 -14 5t-7 13q-9 48 -51 75q-42 28 -94 19q-9 -2 -16.5 3.5t-9 14.5t4 16.5t14.5 9.5q69 12 126 -26t69 -104q2 -9 -3.5 -16.5t-14.5 -9.5h-4
zM834 463q-8 0 -14.5 5t-7.5 13q-16 93 -97 146q-82 54 -181 36q-9 -1 -16.5 4t-9 14t4 16.5t14.5 9.5q116 20 212 -43q97 -64 117 -175q1 -9 -4 -16.5t-14 -9.5h-4zM1012 479q-8 0 -14.5 5.5t-7.5 13.5q-13 76 -56 140.5t-109 108.5q-67 44 -146.5 60t-160.5 1
q-9 -1 -16.5 4t-9 14t3.5 16.5t14 9.5q90 16 177.5 -2t161.5 -66q74 -50 122 -121.5t63 -157.5q1 -9 -4 -16.5t-14 -8.5q-2 -1 -4 -1z" />
    <glyph glyph-name="uniE663" unicode="&#xe663;" 
d="M352 262h-315l470 398l480 -398h-315v-387h-320v387zM40 896h942v-160h-942v160z" />
    <glyph glyph-name="uniE664" unicode="&#xe664;" 
d="M400 354h-298q-31 0 -53 -21.5t-22 -52.5v-299q0 -31 22 -52.5t53 -21.5h298q31 0 53 21.5t22 52.5v299q0 30 -22 52t-53 22zM415 11q0 -18 -13 -31.5t-32 -13.5h-238q-19 0 -32 13.5t-13 31.5v239q0 18 13 31t32 13h238q19 0 32 -13t13 -31v-239zM922 354h-298
q-31 0 -53 -21.5t-22 -52.5v-299q0 -31 22 -52.5t53 -21.5h298q31 0 53 21.5t22 52.5v299q0 30 -22 52t-53 22zM937 11q0 -18 -13 -31.5t-32 -13.5h-238q-19 0 -32 13.5t-13 31.5v239q0 18 13 31t32 13h238q19 0 32 -13t13 -31v-239zM922 861h-298q-31 0 -53 -21.5
t-22 -52.5v-299q0 -30 22 -52t53 -22h298q31 0 53 22t22 52v299q0 31 -22 52.5t-53 21.5zM937 518q0 -18 -13 -31t-32 -13h-238q-19 0 -32 13t-13 31v239q0 18 13 31.5t32 13.5h238q19 0 32 -13.5t13 -31.5v-239zM400 861h-298q-31 0 -53 -21.5t-22 -52.5v-299q0 -30 22 -52
t53 -22h298q31 0 53 22t22 52v299q0 31 -22 52.5t-53 21.5zM415 518q0 -18 -13 -31t-32 -13h-238q-19 0 -32 13t-13 31v239q0 18 13 31.5t32 13.5h238q19 0 32 -13.5t13 -31.5v-239zM379 824h-253q-20 0 -33.5 -15.5t-13.5 -36.5v-276q0 -22 13.5 -37t33.5 -15h253
q20 0 33.5 15t13.5 37v276q0 21 -13.5 36.5t-33.5 15.5z" />
    <glyph glyph-name="uniE665" unicode="&#xe665;" 
d="M371 453h228q60 0 48 -32q-12 -16 -96 -52q-28 -8 -8 -24q8 -8 16 -20h192q16 -12 0 -24h-180q48 -140 -64 -148q-56 0 -96 32q-8 16 12 20q40 -32 84 -28q84 8 36 124h-236q-16 12 0 24h224l-20 20q-16 24 16 40q112 40 68 44h-224q-16 12 0 24zM475 625q0 20 20 16
q40 -60 60 -108h72q28 32 52 96q16 12 24 -8q-12 -32 -44 -88h52q64 0 16 -124q-16 -12 -24 8q40 92 4 92h-360q-24 0 -24 -24v-64q-12 -16 -24 0v72q0 40 40 40h52q-16 28 -48 72q0 16 16 16q40 -48 60 -88h108q-20 44 -52 92zM512 -128q-104 0 -199 40.5t-163.5 109
t-109 163.5t-40.5 199t40.5 199t109 163.5t163.5 109t199 40.5t199 -40.5t163.5 -109t109 -163.5t40.5 -199t-40.5 -199t-109 -163.5t-163.5 -109t-199 -40.5zM512 845q-94 0 -179 -36.5t-147 -98.5t-98.5 -147t-36.5 -179t36.5 -179t98.5 -147t147 -98.5t179 -36.5
t179 36.5t147 98.5t98.5 147t36.5 179t-36.5 179t-98.5 147t-147 98.5t-179 36.5z" />
    <glyph glyph-name="uniE666" unicode="&#xe666;" 
d="M931 438l-222 389q-6 9 -16 12t-19 -3l-96 -55q-9 -6 -11.5 -16t2.5 -19l31 -54l-377 -220q-9 -5 -11.5 -15t2.5 -20l22 -38l-134 -78q-9 -5 -11.5 -15.5t2.5 -19.5l76 -133q6 -9 16 -12t19 3l133 77l21 -35q5 -10 15 -12q11 -3 20 2l376 219l22 -37q5 -10 15 -12
q11 -3 20 2l95 56q9 5 12 15t-2 19zM201 201l-51 89l111 64l51 -88zM390 233l-97 169l-22 39l354 206l119 -207zM823 405l-197 344l51 30l197 -344zM571 191q-8 11 -21 10q-14 0 -21 -12l-136 -222q-6 -9 -3.5 -19t11.5 -16t19.5 -3.5t15.5 11.5l117 191l148 -193
q7 -8 17.5 -9.5t19 5t9.5 17t-5 18.5z" />
    <glyph glyph-name="uniE667" unicode="&#xe667;" 
d="M494 896q-108 0 -198.5 -57t-141 -152t-50.5 -205q0 -77 36.5 -183t91.5 -200.5t127 -160.5t135 -66t135 66t127 160.5t91.5 200.5t36.5 183q0 110 -50.5 205t-141 152t-198.5 57zM494 -55q-41 0 -97 56.5t-104 137t-82 176t-34 167.5q0 90 41 168t114.5 125.5t162 47.5
t161.5 -47.5t114 -125.5t41 -168q0 -72 -33.5 -167.5t-81.5 -176t-104.5 -137t-97.5 -56.5zM494 701q-86 0 -146.5 -61t-60.5 -146.5t60.5 -146.5t146.5 -61t146.5 61t60.5 146.5t-60.5 146.5t-146.5 61zM494.5 360q-55.5 0 -95 39t-39.5 94.5t39.5 95t95 39.5t94.5 -39.5
t39 -95t-39 -94.5t-94.5 -39z" />
    <glyph glyph-name="uniE668" unicode="&#xe668;" 
d="M893 187zM492 558zM568 557zM977 240v0q0 9 -1 19h-5q-2 24 -19 54v1h2l2 1l-141 343v1q-14 39 -48 62.5t-75 23.5q-55 0 -94 -39t-39 -94v-6q1 -4 1 -6v-2l4 -26h-69l4 26v2v6q1 3 1 6q0 55 -39 94t-94 39q-41 0 -75.5 -23.5t-49.5 -62.5v-1l-148 -343l-2 -1q-2 0 -2 -1
q-12 -27 -12 -72l4 1v0q0 -74 47 -125t118 -59q14 -1 19 -1q11 0 17 1q3 0 9 1l3 1h5q4 1 11 2q1 1 2.5 1t2.5 1q6 1 13 4h1l1 1q7 2 14 6v0q37 18 63 49.5t36 71.5v1q2 7 3 15v1v1v1l1 4v1v2l21 158h120l22 -158v-2v-1l1 -4v-1v-1v-1q1 -8 3 -15v-1q10 -40 36 -71.5
t62 -49.5h1q7 -4 14 -6l1 -1h1q7 -3 13 -4q1 -1 2.5 -1.5t2.5 -0.5q7 -1 11 -2q1 0 8 -1q8 -2 9 -2q9 -1 17 -1q10 0 19 1q70 8 117.5 60t47.5 123v0zM692 708q30 0 55 -17.5t36 -45.5v-2l103 -245q-43 25 -93 25t-93 -25.5t-67 -68.5l-36 273q-1 4 -1 8v2q0 40 28 68t68 28
zM275 643q1 1 1 2q11 28 36 45.5t55 17.5q39 0 67.5 -28t28.5 -68v-2q-1 -4 -1 -8l-36 -273q-24 43 -67 68.5t-93 25.5t-93 -25zM190 111q-35 19 -58.5 54t-23.5 75q0 3 3 8t3 7q0 1 1.5 1.5t1.5 1.5q1 2 2 6.5t2 6.5l1 1q1 4 4 14v1q3 6 6 13q17 39 53.5 63t80.5 24
q60 0 103 -43t43 -104v-14l-1 -4v-2v-1q-5 -36 -27 -65.5t-55 -45.5q-5 -3 -11 -5l-1 -1h-1q-5 -2 -10 -3q-1 0 -2 -1h-2q-5 -1 -9 -2q-1 0 -6 -1q-6 -1 -7 -1q-8 -1 -17 -1q-40 0 -73 18zM474 417l16 119h78l16 -119h-110zM793 93q-6 0 -14 1q-1 0 -7 1q-5 1 -6 1
q-4 1 -9 2h-1q-2 1 -3 1q-5 1 -10 3h-1l-1 1q-6 2 -11 5h-1q-32 16 -54 45.5t-27 65.5v1v2l-1 4q-1 7 -1 14q0 61 43 104t104 43q44 0 80 -24t54 -63q3 -6 5 -13v-1h1q2 -6 3 -14l1 -1q1 -6 2 -13q0 -1 -1.5 -1.5t-1.5 -1.5q0 -2 -1 -7.5t-1 -7.5q0 -42 -20 -76t-54 -53
q-33 -18 -67 -18zM279 319.5q0 7.5 -5 13t-13 5.5q-12 0 -23 -3q-32 -8 -52.5 -34t-20.5 -60q0 -7 5.5 -12.5t13 -5.5t12.5 5.5t5 12.5q0 21 13 37.5t33 20.5q7 2 14 2q8 0 13 5.5t5 13zM793 338q-11 0 -23 -3q-32 -8 -52.5 -34t-20.5 -60q0 -7 5.5 -12.5t13 -5.5t13 5.5
t5.5 12.5q0 21 12.5 37.5t32.5 20.5q7 2 14 2q8 0 13.5 5.5t5.5 13t-5.5 13t-13.5 5.5z" />
    <glyph glyph-name="uniE669" unicode="&#xe669;" 
d="M383 38h-87h-103h-3h-9q-4 1 -6 2q-6 1 -11 3h-1q0 1 -2 1.5t-2 1.5q-5 2 -9 5h-1l-3 3q-1 1 -2 1l-7 7q0 1 -1 2l-1 1v0l-1 1q-1 1 -1 2q-3 3 -6 9l-2 4v1v0q-2 5 -4 11q0 2 -1 5v2q-1 6 -1 9v13v14v12v90v122v134v125v98v49v2q0 3 1 9v1v1l2 6q0 4 3 10q1 4 2 6
q3 5 6 9h1l1 2l1 1q1 1 1 2q3 3 8 7q0 1 1.5 2t2 1.5t1.5 0.5q5 4 9 6l3 1l3 1q5 2 10 3q2 1 6 2h1h45h99h129h131h100h40q2 0 5.5 -0.5t5.5 -0.5h1h4l2 -1l9 -3q1 -1 2 -1q3 -1 5 -3q4 -1 9 -5q3 -3 5 -4q3 -3 7 -8l1 -1q2 -2 3 -4q3 -4 5 -9q1 -1 1.5 -2.5t0.5 -2.5
q1 0 1 -1q2 -6 3 -11q1 -2 1 -3v-2v-1v-12v-98v-119v-21q0 -11 8 -19t19 -7q11 0 18.5 7.5t7.5 18.5v77v129v34q0 42 -22 73q-35 49 -95 53h-16h-74h-121h-136h-118h-70q-18 0 -32 -3q-26 -4 -48 -20.5t-35 -39.5q-16 -29 -16 -63v-16v-76v-116v-135v-132v-108v-65v-10
q0 -58 45 -94q36 -29 80 -29h39h126h26q10 0 18 8t8 19t-7.5 18.5t-18.5 7.5zM135 65l-2 2l1 -1zM190 689h84h134h31q10 0 18.5 8t7.5 19q0 11 -7.5 18.5t-18.5 7.5h-84h-134h-31q-11 0 -19 -8t-8 -18q1 -11 8.5 -19t18.5 -8zM497 536h122h59h1q11 0 19 8t8 19
q-1 10 -8.5 18t-18.5 8h-48h-117h-142h-122h-59h-1q-11 0 -19 -8t-8 -18q1 -11 8.5 -19t18.5 -8h48h117h142zM302 436h-98h-14q-11 0 -19 -8t-7 -18q0 -11 7.5 -19t18.5 -8h98h14q10 0 18.5 8t7.5 19q0 11 -7.5 18.5t-18.5 7.5zM646 318zM920 289v1q-1 1 -1 2q-1 0 1 -3z
M946 128l2 2v1q1 2 2 3l1 1l1 2l1 2l1 1v2l2 1v1q1 2 2 3q25 43 25 91v1v2v2v2q-2 54 -32 97q-14 20 -32 36q-7 6 -13 10q-33 25 -75.5 32.5t-81.5 -4.5q-45 -12 -79 -46q-24 23 -51 36q-11 5 -23 9q-56 18 -112 -1q-50 -17 -82 -54q-11 -13 -19 -27q-23 -38 -26 -83
q-3 -43 15 -85v-1q1 0 1 -1t0.5 -1.5t0.5 -1.5l1 -1v-1q7 -14 16 -27q0 -1 1 -2l1 -1l1 -1q2 -4 11 -14l18 -17l57 -58l124 -124q2 -1 7 -6l7 -7q2 -2 6.5 -6t7.5 -6l8 -5q4 -3 8 -4q10 -4 21 -4q28 0 48 20q1 0 10 9l115 116l97 97q4 4 7 9v1zM673 -71h-1h1v0zM670 -71v0v0
v0h-1h-1h-1h3v0q0 1 -2 1h-1h-3l-2 2l-2 1v1q-2 2 -4 3.5t-4 4t-3 3.5l-115 114q-10 11 -30 31l-35 35l-30 30l-2 2l-1 2l-1 1q0 1 -1 2l-3 3q0 1 -1 1v1q0 1 -1 2t-1 2q-1 1 -2 3v1l-1.5 1.5t-1 1.5t-0.5 2l-1 3h-1l-1 4l-2 4v1q-1 1 -1 2t-0.5 1t-0.5 1v1v1l-1 2v1l-1 1v2
v0q0 1 -0.5 1.5t-0.5 1.5q0 2 -1 3v1v1v1v1q-1 1 -1 2v2v2q0 1 -0.5 2.5t-0.5 2.5q-1 7 -1 12v2q0 2 1 3v1v13q1 1 1 2v2v2q1 1 1 2v3q1 0 1 1v1l1 1v2v2v2q1 2 2 2v2l1 3q0 1 1 2v1q1 1 1 2v1q1 1 2 4q1 1 1.5 2t0.5 2l1 1v1v1l2 3v1h1q0 1 0.5 2t0.5 2l2 1q1 2 2.5 4
t2.5 3l1 1v1q1 1 3 4t2.5 3t1.5 1q2 3 3 4l4 3q0 1 1 1q0 1 1 2l2 2q1 0 2 1l2 2h1l3 3q7 5 12 8h2q1 1 1 2q2 1 6 2.5t5 2.5t3 2q0 -1 -1 -1.5t-2 -0.5l3 2l5 1v1q1 0 2.5 0.5t2.5 0.5h1v1q2 0 5 1q2 1 5 1q1 0 1.5 0.5t1.5 0.5h2h1v1h4v0h1h1l1 1l-3 -1q1 0 3 1h16h1h4h2
h2h3q2 0 7 -1q1 0 3.5 -0.5t3.5 -0.5h1l1 -1l5 -1q1 0 4 -1h1q1 0 2 -1h1q1 0 5 -2t7 -2l1 -1q3 -1 8 -4h1q9 -5 18 -12l2 -2l-2 1v1v0l2 -2q1 -1 3.5 -3t3.5 -3q3 -2 5 -5h1q0 -1 1 -2l2 -2q1 0 1 -0.5t1 -0.5q0 -1 1.5 -2.5t1.5 -2.5h1q0 -1 0.5 -1t0.5 -1v0v0
q10 -13 23 -13v0q13 0 23 13l1 2q1 0 1.5 1t1.5 2l1 1l3 3l1 1q1 1 1 2q5 4 13 11l1 1l1 1l1 1q1 0 1 0.5v0.5h1l4 3h1v1q1 0 2 1t1.5 1t1.5 0.5t2 1.5h1q5 3 13 7v0q3 2 9 4q1 0 2 0.5t2 0.5q2 0 5 1h1v1q4 0 6 1q2 0 6 1h3q9 1 17 1h2h2h2h2h3h1h1l4 -1h2h-1h-1h2h1h2h1
q0 -1 1 -1t2.5 -0.5t2.5 -0.5h1h1l1 -1h2h2q1 -1 3 -1l1 -1h1q2 -1 3 -1t2 -1q1 0 3 -1h1h1v0v0l2 -2q1 0 3 -1l4 -2h1q1 -1 3 -2l1 -1q2 -1 5 -3v0q1 0 2.5 -1l1.5 -1l1 -1q1 0 2 -1t2 -1v-1h1v0h-1h1v0v0l1 -2l-1 1q2 -1 3 -2q3 -2 4 -3q0 -1 0.5 -1.5t1.5 -1t2 -1.5l1 -1
q5 -5 12 -13l2 -3l-2 2h1l1 -2q1 -2 3.5 -5.5t3.5 -5.5l1 -1q1 -3 3.5 -7.5t3.5 -5.5q0 -1 1 -3v0v0q1 -1 2 -6l3 -9q1 -3 2 -8.5t2 -7.5v-2v-1l-1 3l1 -3v-1v-1q1 -2 1 -3v-1v-10v-1v-10v-1v-1v-1v-1h-1v-2v-2v0q0 -1 -0.5 -3.5t-0.5 -4.5l-1 -1v-1v-2h-1v-2v-1l-1 -1v-2
q0 -1 -1 -2v-2q0 -1 -1 -1q0 -2 -0.5 -2.5t-0.5 -1.5l-1 -3v0v-1l-1 -1v-1l-3 -5q0 -1 -1 -2.5t-1.5 -2.5t-0.5 -1.5t-2 -4.5l-1 -1q-1 -3 -3 -5q-3 -4 -3.5 -5t-2.5 -3q0 -1 -1 -2l-80 -80l-121 -121l-16 -16l-4 -4l-1 -1l-1 -1q-1 -1 -3 -2h-1h-1h-2l-1 -1v0h1h1h-2v0z
M666 -71l1 1v-1h-1z" />
    <glyph glyph-name="uniE66A" unicode="&#xe66a;" 
d="M806 434l-294 -562l-294 562l294 -52zM837 571q0 -88 -43.5 -162.5t-118 -118t-163.5 -43.5q-113 0 -200.5 69.5t-114.5 176.5q-9 39 -9 78q0 89 43.5 163.5t118 118t163 43.5t163 -43.5t118 -118t43.5 -163.5v0zM512 773q-77 0 -132 -55t-55 -133t55 -133t132.5 -55
t132.5 55t55 133t-55 133t-133 55v0zM806 434l-294 -562l-294 562l294 -52zM837 571q0 -88 -43.5 -162.5t-118 -118t-163.5 -43.5q-113 0 -200.5 69.5t-114.5 176.5q-9 39 -9 78q0 89 43.5 163.5t118 118t163 43.5t163 -43.5t118 -118t43.5 -163.5v0zM512 773
q-77 0 -132 -55t-55 -133t55 -133t132.5 -55t132.5 55t55 133t-55 133t-133 55v0zM512 773z" />
    <glyph glyph-name="uniE66B" unicode="&#xe66b;" 
d="M1158 386zM501 361q109 0 186 76t77 183t-77 183t-186 76t-186 -76t-77 -183t77 -183t186 -76zM288 620.5q0 86.5 62.5 147.5t150.5 61t150.5 -61t62.5 -147.5t-62.5 -148t-150.5 -61.5t-150.5 61.5t-62.5 148zM610 333h-198q-90 0 -167 -44t-121.5 -119.5t-44.5 -164.5
v-19q0 -23 10.5 -39.5t36 -26.5t48.5 -16t70 -8.5t77 -3t91 -0.5h198q59 0 88 0.5t76 3t70.5 8.5t50 16t37.5 26.5t11 39.5v19q0 89 -44.5 164.5t-121.5 119.5t-167 44zM412 283h198q117 0 200 -81.5t83 -196.5v-19q0 -15 -20.5 -24t-84 -14.5t-178.5 -5.5h-198
q-154 0 -218.5 8.5t-64.5 35.5v19q0 115 83 196.5t200 81.5z" />
    <glyph glyph-name="uniE66C" unicode="&#xe66c;" 
d="M238 391q51 -56 128 -135.5t187.5 -191.5t125.5 -128l107 104q-343 348 -345 358q258 264 325 340l-95 94z" />
    <glyph glyph-name="uniE66D" unicode="&#xe66d;" 
d="M719 300v259l-197 148v76h175v97h-183h-16v-173l-199 -156v-251h-298v-428h414v164q0 37 25.5 62.5t62.5 25.5t63.5 -26t26.5 -64v-162h415v428h-289zM505.5 364q-36.5 0 -62.5 26t-26 62.5t26 62t62.5 25.5t62.5 -25.5t26 -62t-26 -62.5t-62.5 -26z" />
    <glyph glyph-name="uniE66E" unicode="&#xe66e;" 
d="M916 457h-809q-13 0 -17 12.5t7 19.5l404 277q10 7 20 0l405 -277q11 -7 7 -19.5t-17 -12.5zM164 492h695l-348 238zM209 108q-8 0 -13 5t-5 13v335q0 7 5 12t12.5 5t12.5 -5t5 -12v-335q0 -8 -5 -13t-12 -5zM814 108q-7 0 -12.5 5t-5.5 13v335q0 7 5.5 12t12.5 5
t12.5 -5t5.5 -12v-335q0 -8 -5.5 -13t-12.5 -5zM360 108q-7 0 -12.5 5t-5.5 13v335q0 7 5.5 12t12.5 5t12.5 -5t5.5 -12v-335q0 -8 -5.5 -13t-12.5 -5zM511 108q-7 0 -12.5 5t-5.5 13v335q0 7 5.5 12t12.5 5t12.5 -5t5.5 -12v-335q0 -8 -5.5 -13t-12.5 -5zM663 108
q-8 0 -13 5t-5 13v335q0 7 5 12t12.5 5t12.5 -5t5 -12v-335q0 -8 -5 -13t-12 -5zM871 104h-719q-7 0 -12 5t-5 12.5t5 12.5t12 5h719q7 0 12 -5t5 -12.5t-5 -12.5t-12 -5zM941 2h-859q-8 0 -13 5.5t-5 12.5t5 12t13 5h859q7 0 12.5 -5t5.5 -12t-5.5 -12.5t-12.5 -5.5z" />
    <glyph glyph-name="uniE66F" unicode="&#xe66f;" horiz-adv-x="1366" 
d="M1226 681l-541 -595l-540 595h1081z" />
    <glyph glyph-name="uniE670" unicode="&#xe670;" 
d="M514 711h417q10 0 17.5 -7t7.5 -19v-591q0 -10 -8 -18t-17 -8h-417v51h391v541h-391v51zM514 251h264q9 0 15 6t6 16q0 7 -6 14t-15 7h-264v-43zM514 379h264q9 0 15 5t6 12q0 10 -6 15.5t-15 5.5h-264v-38zM514 502h264q9 0 15 6t6 15.5t-6 15.5t-15 6h-264v-43zM93 711
h421v-51h-396v-541h396v-51h-421q-10 0 -18 8t-8 18v591q0 12 7.5 19t18.5 7zM514 545h-268q-10 0 -16 -6t-6 -15.5t6 -15.5t16 -6h268v43zM514 417h-268q-10 0 -16 -5.5t-6 -15.5q0 -7 6.5 -12t15.5 -5h268v38zM514 294h-268q-9 0 -15.5 -7t-6.5 -14q0 -10 6 -16t16 -6h268
v43z" />
    <glyph glyph-name="uniE671" unicode="&#xe671;" 
d="M162 621l350 1l352 -3q39 0 47 -6q11 -9 10.5 -24t-10.5 -25l-373 -408q-11 -10 -26 -10t-26 10l-373 408q-10 10 -10.5 25t10.5 24q10 8 49 8z" />
    <glyph glyph-name="uniE672" unicode="&#xe672;" 
d="M284 46l57 -59l399 397l-399 397l-57 -59l336 -338z" />
    <glyph glyph-name="uniE673" unicode="&#xe673;" 
d="M235 -26l69 -72l485 482l-485 482l-69 -72l407 -410z" />
    <glyph glyph-name="uniE674" unicode="&#xe674;" 
d="M512 831q120 0 204.5 -83t84.5 -201t-84.5 -201.5t-204.5 -83.5t-204.5 83.5t-84.5 201.5t84.5 201t204.5 83zM512 343q86 0 146.5 59.5t60.5 144t-60.5 144t-146.5 59.5t-146.5 -59.5t-60.5 -144t60.5 -144t146.5 -59.5zM512 343q112 0 207 -54.5t150.5 -148
t55.5 -203.5h-83q0 88 -44 163t-120 118.5t-166 43.5t-166 -43.5t-120 -118.5t-44 -163h-83q0 110 55.5 203.5t150.5 148t207 54.5z" />
    <glyph glyph-name="uniE675" unicode="&#xe675;" 
d="M201 128h184l638 639q-3 2 -9 6.5t-27 16t-45.5 20.5t-64 16t-82.5 7q-109 0 -211 -45.5t-168 -111.5q-35 -35 -107 -108t-127 -128l-54 -55l1 -238l-129 -133v-78h448v64h-372zM462 631q57 57 142 95q96 43 191 43q67 0 122 -19l-559 -557h-95l305 314l-46 45l-137 -141
v142q50 51 77 78zM192 359q67 67 128 129v-144l-127 -131z" />
    <glyph glyph-name="uniE676" unicode="&#xe676;" 
d="M307 354l544 -475v1017l-544 -475v475h-205v-1024h205v482z" />
    <glyph glyph-name="uniE677" unicode="&#xe677;" 
d="M768 384v-461h-51v666h102l-307 205l-307 -205h102v-666h-51v461h-205v-512h922v512h-205zM102 282h103v-52h-103v52zM102 179h103v-51h-103v51zM102 77h103v-51h-103v51zM512 538q42 0 72 -30t30 -72.5t-30 -72.5t-72 -30t-72 30t-30 72.5t30 72.5t72 30zM410 -77v256
h204v-256h-204zM819 282h103v-52h-103v52zM819 179h103v-51h-103v51zM819 77h103v-51h-103v51z" />
    <glyph glyph-name="uniE678" unicode="&#xe678;" 
d="M789.5 643.5q-56.5 56.5 -130 86t-147.5 29.5t-147.5 -29.5t-130 -86t-86 -130t-29.5 -147.5t29.5 -147.5t85.5 -130.5q76 -75 177 -102t202 0t177 102q56 57 85.5 130.5t29.5 147.5t-29.5 147.5t-86 130zM530 174v-62h-42v60q-44 1 -70 8.5t-48 24.5l17 48
q45 -29 118 -29q40 0 64 13.5t24 36.5t-20 36.5t-66 25.5q-68 18 -99 44.5t-31 65.5t26.5 67t84.5 34v62h42v-61q29 -1 49.5 -5t30.5 -8.5t26 -14.5l-14 -48q-48 25 -104 25q-42 0 -59.5 -13.5t-17.5 -33.5q0 -18 21.5 -32t72.5 -28q65 -18 91 -42.5t26 -69.5
q0 -38 -31.5 -67.5t-90.5 -36.5z" />
    <glyph glyph-name="uniE679" unicode="&#xe679;" 
d="M512 304l156 155q12 13 30.5 13t31.5 -13t13 -31t-13 -31l-187 -187q-13 -13 -31 -13t-31 13l-187 187q-13 13 -13 31t13 31t31.5 13t30.5 -13zM854 42q93 93 126 217.5t0 249t-126 217.5t-217.5 126t-249 0t-217.5 -126t-126 -217.5t0 -249t126 -217.5
q69 -70 159.5 -106t182.5 -36t182.5 36t159.5 106z" />
    <glyph glyph-name="uniE67A" unicode="&#xe67a;" 
d="M512 386q61 0 103.5 42.5t42.5 103t-42.5 103.5t-103.5 43t-103.5 -43t-42.5 -103.5t42.5 -103t103.5 -42.5zM512 622q37 0 63.5 -26.5t26.5 -63.5t-26.5 -63.5t-63.5 -26.5t-63.5 26.5t-26.5 63.5t26.5 63.5t63.5 26.5zM964 134q-27 25 -74 45q-72 30 -181 46
q56 67 90 130q52 96 52 177q0 74 -27 138q-26 62 -73 107q-96 93 -239 93q-144 0 -239 -90q-47 -45 -73 -107q-26 -65 -26 -141q0 -30 7 -63v-1q2 -10 6 -24q3 -9 7 -19v-1q6 -15 11 -28q5 -11 15.5 -15t21.5 0q11 5 15.5 15.5t0.5 21.5q0 1 -0.5 1t-1.5 1v2q-3 8 -4 10
q-4 11 -5 13q-3 9 -5 16q-12 38 -12 71q0 124 79 202.5t203 78.5q123 0 202.5 -79.5t79.5 -201.5q0 -48 -24 -105t-56 -103t-75.5 -94.5t-71.5 -75t-55 -49.5q-64 56 -119 116v1q-10 11 -25 9q-143 -14 -234 -53q-47 -19 -74 -44q-32 -30 -32 -66q0 -80 153 -128
q138 -43 331 -43t331 43q154 48 154 128q-1 36 -33 66zM826 -5q-129 -41 -314 -41t-314 41q-55 17 -84.5 37t-29.5 36q0 12 17.5 26.5t49.5 29.5t87 28.5t122 21.5q75 -82 134 -128q8 -6 18 -6t18 6q68 56 134 128q67 -8 122 -21.5t87 -28.5t49.5 -29.5t17.5 -26.5
q0 -15 -29.5 -35.5t-84.5 -37.5zM331 306.5q0 17.5 -12.5 30t-30 12.5t-30 -12.5t-12.5 -30t12.5 -30t30 -12.5t30 12.5t12.5 30z" />
    <glyph glyph-name="uniE67B" unicode="&#xe67b;" 
d="M639 780v2q-4 26 -24 32q-17 5 -37 -9q-8 -6 -13 -12l-152 -161q-32 -33 -72 -36l-165 1h-2q-35 -4 -53 -26.5t-21 -44.5v-2v-299l2 -4q10 -22 25.5 -37t23.5 -18t14 -4l2 -1l172 -2h1q22 1 59 -26l191 -186l7 -1h7q15 0 25 9q12 11 10 30v795zM932 381q-1 77 -32 147
q-36 81 -86 121q-12 10 -22 5t-11 -15t6 -18q105 -105 106 -241q-1 -136 -106 -240q-8 -7 -6 -18t11 -15t22 5q50 40 86 121q31 70 32 147v0v1zM821 380v0v1v0q-1 57 -24 109q-12 25 -30.5 52t-34.5 39q-13 11 -25.5 -1.5t-0.5 -26.5q32 -28 53.5 -76t22.5 -97
q-1 -49 -22.5 -96.5t-53.5 -75.5q-12 -14 0.5 -26.5t25.5 -1.5q16 12 34.5 38.5t30.5 52.5q23 52 24 109z" />
  </font>
</defs>
</svg>
